<?xml version="1.0" encoding="UTF-8" standalone="no"?>
<svg
   xmlns:dc="http://purl.org/dc/elements/1.1/"
   xmlns:cc="http://creativecommons.org/ns#"
   xmlns:rdf="http://www.w3.org/1999/02/22-rdf-syntax-ns#"
   xmlns:svg="http://www.w3.org/2000/svg"
   xmlns="http://www.w3.org/2000/svg"
   xmlns:sodipodi="http://sodipodi.sourceforge.net/DTD/sodipodi-0.dtd"
   xmlns:inkscape="http://www.inkscape.org/namespaces/inkscape"
   version="1.1"
   id="svg90"
   width="273.06668"
   height="273.06668"
   viewBox="0 0 273.06668 273.06668"
   sodipodi:docname="exclamation-box.svg"
   inkscape:version="1.0.2-2 (e86c870879, 2021-01-15)">
  <metadata
     id="metadata96">
    <rdf:RDF>
      <cc:Work
         rdf:about="">
        <dc:format>image/svg+xml</dc:format>
        <dc:type
           rdf:resource="http://purl.org/dc/dcmitype/StillImage" />
        <dc:title></dc:title>
      </cc:Work>
    </rdf:RDF>
  </metadata>
  <defs
     id="defs94" />
  <sodipodi:namedview
     pagecolor="#ffffff"
     bordercolor="#666666"
     borderopacity="1"
     objecttolerance="10"
     gridtolerance="10"
     guidetolerance="10"
     inkscape:pageopacity="0"
     inkscape:pageshadow="2"
     inkscape:window-width="1827"
     inkscape:window-height="971"
     id="namedview92"
     showgrid="false"
     inkscape:zoom="1.845703"
     inkscape:cx="150.97699"
     inkscape:cy="148.38785"
     inkscape:window-x="72"
     inkscape:window-y="0"
     inkscape:window-maximized="0"
     inkscape:current-layer="g98" />
  <g
     inkscape:groupmode="layer"
     inkscape:label="Image"
     id="g98">
    <path
       style="fill:#e6e6e6;stroke-width:0.901375"
       d="M 30.17143,134.53334 V 28.17143 h 106.36191 106.3619 V 134.53334 240.89525 H 136.53334 30.17143 Z m 199.20323,0 V 41.692012 H 136.53334 43.692012 v 92.841328 92.84133 h 92.841328 92.84132 z m -101.55143,77.05438 c -7.04298,-4.22162 -9.42088,-13.40837 -5.4865,-21.19639 3.74083,-7.40487 12.24696,-10.66461 20.05134,-7.68408 4.34436,1.65912 9.11318,6.43191 10.01442,10.02276 1.04479,4.16278 -0.11108,11.67221 -2.26146,14.69213 -4.63506,6.50935 -15.13738,8.46959 -22.3178,4.16558 z m -1.20994,-63.75914 c -0.81027,-5.64572 -1.31376,-22.23404 -1.55944,-51.378213 l -0.36283,-43.040518 h 12.23076 12.23076 l 0.0135,38.533658 c 0.0106,30.202263 -0.30985,41.310793 -1.48203,51.378213 l -1.49552,12.84455 h -9.1893 -9.18929 z"
       id="path102" />
  </g>
</svg>
