<?xml version="1.0" encoding="UTF-8" standalone="no"?>
<svg
   xmlns:dc="http://purl.org/dc/elements/1.1/"
   xmlns:cc="http://creativecommons.org/ns#"
   xmlns:rdf="http://www.w3.org/1999/02/22-rdf-syntax-ns#"
   xmlns:svg="http://www.w3.org/2000/svg"
   xmlns="http://www.w3.org/2000/svg"
   xmlns:sodipodi="http://sodipodi.sourceforge.net/DTD/sodipodi-0.dtd"
   xmlns:inkscape="http://www.inkscape.org/namespaces/inkscape"
   version="1.1"
   id="svg62"
   width="580.26666"
   height="337.06668"
   viewBox="0 0 580.26666 337.06668"
   sodipodi:docname="human-superposition.svg"
   inkscape:version="1.0.2-2 (e86c870879, 2021-01-15)">
  <metadata
     id="metadata68">
    <rdf:RDF>
      <cc:Work
         rdf:about="">
        <dc:format>image/svg+xml</dc:format>
        <dc:type
           rdf:resource="http://purl.org/dc/dcmitype/StillImage" />
        <dc:title></dc:title>
      </cc:Work>
    </rdf:RDF>
  </metadata>
  <defs
     id="defs66" />
  <sodipodi:namedview
     pagecolor="#ffffff"
     bordercolor="#666666"
     borderopacity="1"
     objecttolerance="10"
     gridtolerance="10"
     guidetolerance="10"
     inkscape:pageopacity="0"
     inkscape:pageshadow="2"
     inkscape:window-width="2551"
     inkscape:window-height="1235"
     id="namedview64"
     showgrid="false"
     inkscape:zoom="1.7457491"
     inkscape:cx="290.13333"
     inkscape:cy="168.53334"
     inkscape:window-x="72"
     inkscape:window-y="0"
     inkscape:window-maximized="0"
     inkscape:current-layer="g70" />
  <g
     inkscape:groupmode="layer"
     inkscape:label="Image"
     id="g70">
    <path
       style="fill:#e6e6e6;stroke-width:1.02364"
       d="m 33.288018,303.19744 c 2.15516,-32.88619 19.266272,-66.06286 44.474236,-86.23091 9.19367,-7.35556 21.453216,-14.89404 29.897836,-18.38442 3.09649,-1.27986 5.99164,-2.6364 6.43365,-3.01455 0.44202,-0.37813 -1.86116,-2.45121 -5.11817,-4.60684 C 95.736798,182.19874 84.371701,169.0025 77.374177,154.26771 71.815737,142.56321 69.728351,134.02285 69.072398,120.30172 68.171251,101.45166 71.75447,86.801188 81.299072,70.311334 88.621727,57.660254 103.98873,43.350899 117.582,36.525595 c 19.65831,-9.870601 45.46682,-12.180491 65.70748,-5.880891 6.14281,1.911858 6.2614,1.912025 6.2614,0.0088 0,-1.731713 0.82402,-1.939931 7.67726,-1.939931 h 7.67726 v 5.570164 5.570164 l 5.89537,4.536382 c 16.62263,12.790817 28.17188,29.82258 33.4467,49.324108 2.37346,8.774869 3.19251,26.385319 1.667,35.841949 -4.02792,24.96887 -18.54152,47.67776 -39.23314,61.38662 -3.24574,2.1504 -5.76775,4.0434 -5.60448,4.20667 0.16328,0.16327 4.13724,1.94061 8.83105,3.94965 17.21697,7.36916 36.44205,22.64832 48.32128,38.4034 13.56048,17.98489 22.60862,42.82262 24.15708,66.31277 l 0.62417,9.46863 -7.06393,-0.01 c -3.88515,-0.005 -9.48226,-0.29937 -12.43801,-0.6544 l -5.37408,-0.6455 v -7.53468 -7.53468 h 3.07091 c 3.80846,0 3.84069,-0.69918 0.58983,-12.79543 -10.00707,-37.23499 -37.31839,-64.44776 -75.31517,-75.0427 -8.7996,-2.45366 -11.4284,-2.71353 -27.63815,-2.73221 -13.6918,-0.0157 -19.66809,0.40566 -25.35812,1.78824 -36.720757,8.92244 -64.308456,33.3533 -77.032353,68.2176 -3.425197,9.38526 -6.114821,23.21754 -6.114821,31.44747 v 5.4959 H 41.481767 32.626998 Z M 178.50227,185.00967 c 24.06565,-7.64226 42.77127,-27.32004 48.95537,-51.49963 9.29844,-36.35659 -12.26147,-74.245778 -48.99616,-86.105356 -6.56148,-2.118335 -9.9452,-2.544494 -20.64328,-2.599889 -11.07068,-0.05732 -13.85329,0.284193 -20.64329,2.533634 -24.42311,8.091053 -42.820505,27.473789 -48.99615,51.620331 -10.140782,39.65009 16.87471,80.92326 57.86764,88.40785 8.43083,1.53932 23.67184,0.43251 32.45587,-2.35694 z m 25.48751,-41.53128 c -5.78643,-18.33441 -5.61677,-38.29134 0.48163,-56.651913 0.89219,-2.686118 2.00201,-4.883851 2.46625,-4.883851 1.31015,0 6.08574,8.685624 8.27626,15.052484 2.82644,8.2152 2.82644,30.26338 0,38.47857 -2.1458,6.2369 -6.95755,15.05248 -8.21598,15.05248 -0.43112,0 -1.78478,-3.17149 -3.00816,-7.04777 z m -41.82114,169.08332 c -2.14203,-0.41258 -2.30318,-0.97577 -2.30318,-8.04968 0,-7.28007 0.10206,-7.60607 2.38216,-7.60607 2.12612,0 2.51523,-0.72224 3.62032,-6.71981 3.9204,-21.27677 13.61375,-41.75785 27.70874,-58.54578 l 5.3789,-6.40657 5.78991,3.12073 c 10.53718,5.67952 10.37337,5.33261 5.16938,10.94784 -17.05538,18.40316 -28.55308,45.9809 -28.55308,68.48585 v 5.4959 l -8.44498,-0.1394 c -4.64475,-0.0767 -9.48142,-0.33903 -10.74817,-0.58301 z m 131.02527,0 c -2.14204,-0.41258 -2.30318,-0.97577 -2.30318,-8.04968 0,-7.28007 0.10205,-7.60607 2.38215,-7.60607 2.12612,0 2.51523,-0.72224 3.62032,-6.71981 5.31772,-28.86032 21.09952,-55.76212 42.98419,-73.27131 9.13527,-7.30883 21.40732,-14.85009 29.83323,-18.33273 3.0965,-1.27986 5.99164,-2.6364 6.43366,-3.01455 0.44201,-0.37813 -1.86117,-2.45121 -5.11818,-4.60684 -13.23877,-8.76198 -24.60387,-21.95822 -31.6014,-36.69301 -5.55843,-11.7045 -7.64582,-20.24486 -8.30178,-33.96599 -1.26647,-26.491713 6.98769,-47.844125 25.80917,-66.764963 l 9.41891,-9.468623 h -6.50928 -6.50926 V 36.390871 28.71361 h 7.67726 7.67726 v 6.738929 c 0,3.706412 0.36863,6.585386 0.81917,6.397719 0.45056,-0.187666 4.36399,-2.183754 8.69652,-4.435751 6.00478,-3.12121 7.87836,-4.604314 7.88171,-6.239023 0.004,-2.02864 0.76471,-2.193449 14.07937,-3.050949 19.64681,-1.265305 32.31851,-0.790027 41.4924,1.556257 31.29724,8.004486 56.14442,32.617885 64.64186,64.033635 2.37344,8.774863 3.1925,26.385323 1.66698,35.841953 -4.0279,24.96887 -18.54152,47.67776 -39.23314,61.38662 -3.24572,2.1504 -5.76774,4.04339 -5.60447,4.20667 0.16327,0.16327 4.13724,1.94061 8.83104,3.94965 17.21698,7.36916 36.44206,22.64832 48.32128,38.40339 13.56049,17.9849 22.60863,42.82263 24.15709,66.31278 l 0.62417,9.46863 -7.06393,-0.01 c -3.88516,-0.005 -9.48226,-0.29937 -12.438,-0.6544 l -5.37408,-0.6455 v -7.53468 -7.53468 h 3.0709 c 3.80846,0 3.84068,-0.69918 0.58982,-12.79543 -10.00706,-37.23539 -37.31839,-64.44815 -75.31517,-75.0431 -8.79958,-2.45365 -11.42839,-2.71353 -27.63814,-2.7322 -13.6918,-0.0157 -19.6681,0.40566 -25.35812,1.78824 -36.72076,8.92243 -64.30846,33.35329 -77.03236,68.2176 -3.4252,9.38526 -6.11481,23.21754 -6.11481,31.44746 v 5.49591 l -8.44499,-0.1394 c -4.64474,-0.0767 -9.48142,-0.33903 -10.74817,-0.58301 z M 440.5528,185.00967 c 24.06565,-7.64226 42.77127,-27.32004 48.95536,-51.49963 9.29791,-36.35449 -12.08713,-73.963053 -48.99615,-86.166506 -6.71538,-2.220346 -9.69427,-2.594782 -20.64328,-2.594782 -10.94902,0 -13.92791,0.374436 -20.64329,2.594782 -24.40793,8.070143 -42.81991,27.466322 -48.99615,51.615226 -10.14078,39.65009 16.87471,80.92326 57.86764,88.40785 8.43084,1.53932 23.67183,0.43251 32.45587,-2.35694 z m -73.37617,-39.13938 c -5.37165,-9.16604 -6.67873,-14.96597 -6.67873,-29.63589 0,-10.66824 0.41413,-14.70227 1.97509,-19.23929 2.2202,-6.4531 6.97187,-15.052484 8.3174,-15.052484 1.15951,0 4.76485,11.752784 6.06751,19.779044 1.33955,8.25355 1.31956,21.28435 -0.0443,28.91152 -1.33533,7.46711 -5.19777,19.89297 -6.18354,19.89297 -0.39869,0 -1.95272,-2.09514 -3.45341,-4.65587 z m 25.82168,166.66814 -3.83863,-0.40153 v -7.61547 -7.61547 h 3.07091 c 3.80846,0 3.84068,-0.69918 0.58982,-12.79543 -4.29959,-15.99854 -12.23923,-30.90636 -23.24373,-43.64349 -2.74133,-3.17295 -4.98423,-6.01856 -4.98423,-6.3236 0,-0.9549 11.95834,-7.86829 13.61005,-7.86829 3.44786,0 15.0994,15.51806 22.07794,29.40443 7.69333,15.3087 12.01032,31.13393 13.13108,48.13591 l 0.62418,9.46863 -8.59939,-0.17208 c -4.72965,-0.0947 -10.32675,-0.35276 -12.438,-0.57361 z M 61.596519,304.58322 v -7.67726 h 8.189079 8.18908 v 7.67726 7.67726 h -8.18908 -8.189079 z m 32.756316,0 v -7.67726 h 8.189075 8.18909 v 7.67726 7.67726 h -8.18909 -8.189075 z m 32.756315,0 v -7.67726 h 8.18908 8.18908 v 7.67726 7.67726 h -8.18908 -8.18908 z m 65.51264,0 v -7.67726 h 8.18907 8.18908 v 7.67726 7.67726 h -8.18908 -8.18907 z m 32.75631,0 v -7.67726 h 8.18907 8.18909 v 7.67726 7.67726 h -8.18909 -8.18907 z m 98.26895,0 v -7.67726 h 8.18907 8.18909 v 7.67726 7.67726 h -8.18909 -8.18907 z m 32.75631,0 v -7.67726 h 8.18909 8.18907 v 7.67726 7.67726 h -8.18907 -8.18909 z m 65.51264,0 v -7.67726 h 8.18907 8.18908 v 7.67726 7.67726 h -8.18908 -8.18907 z m 32.75631,0 v -7.67726 h 8.18908 8.18908 v 7.67726 7.67726 h -8.18908 -8.18908 z m 32.75631,0 v -7.67726 h 8.18909 8.18907 v 7.67726 7.67726 h -8.18907 -8.18909 z M 249.09745,210.62057 c -0.66918,-0.80631 -3.99997,-3.48699 -7.40174,-5.95706 l -6.18506,-4.49105 4.70249,-2.17681 c 2.58636,-1.19725 4.91021,-2.38452 5.16408,-2.6384 0.25389,-0.25388 -2.73677,-2.64694 -6.64589,-5.31793 l -7.10749,-4.85634 5.26213,-6.96623 5.26212,-6.96622 5.68998,3.84813 c 13.8514,9.36771 24.71707,12.74486 41.00539,12.74486 16.24775,0 27.1016,-3.36368 40.9454,-12.68924 l 5.62999,-3.79252 5.30703,6.92092 5.30703,6.92092 -7.1917,4.91388 -7.1917,4.91387 5.97847,2.65388 c 5.69653,2.52872 5.86929,2.71232 3.66326,3.89296 -1.27338,0.68148 -4.82796,3.28571 -7.89908,5.78717 l -5.58384,4.5481 -10.0138,-2.78766 c -9.21227,-2.56454 -11.48866,-2.78639 -28.43924,-2.77165 -18.55467,0.0161 -20.2505,0.25103 -36.92237,5.11438 -1.25724,0.36675 -2.6135,0.022 -3.33546,-0.84796 z M 241.75626,60.658824 c 0,-0.454799 -2.27247,-3.647012 -5.04993,-7.093807 l -5.04993,-6.266899 2.23494,-1.561301 c 2.10047,-1.467372 1.81925,-1.56453 -4.67461,-1.614991 l -6.90954,-0.05369 V 36.39087 28.713609 h 7.67727 7.67726 v 6.738929 c 0,3.706412 0.36863,6.585386 0.81917,6.397719 0.45055,-0.187666 4.36399,-2.183754 8.69651,-4.435751 6.26797,-3.258012 7.87823,-4.565087 7.88172,-6.397719 0.004,-2.169943 0.42123,-2.303178 7.21018,-2.303178 3.96318,0 11.56367,-0.485933 16.88997,-1.079851 11.25631,-1.255153 25.31801,-0.05081 35.15547,3.010945 6.14282,1.911858 6.2614,1.912025 6.2614,0.0088 0,-1.731713 0.82403,-1.939931 7.67726,-1.939931 h 7.67727 v 5.610142 c 0,5.523456 0.0773,5.667887 5.00564,9.347205 l 5.00565,3.737063 -5.00565,6.211948 c -2.75311,3.416572 -5.00564,6.584057 -5.00564,7.038856 0,0.4548 -2.64866,-0.964933 -5.8859,-3.154961 -13.86862,-9.382252 -24.4704,-12.683888 -41.12279,-12.806574 -16.37818,-0.120668 -27.07779,3.198761 -41.27982,12.806574 -3.23725,2.190037 -5.8859,3.60977 -5.8859,3.15497 z"
       id="path74" />
  </g>
</svg>
