<?xml version="1.0" encoding="UTF-8" standalone="no"?>
<svg
   xmlns:dc="http://purl.org/dc/elements/1.1/"
   xmlns:cc="http://creativecommons.org/ns#"
   xmlns:rdf="http://www.w3.org/1999/02/22-rdf-syntax-ns#"
   xmlns:svg="http://www.w3.org/2000/svg"
   xmlns="http://www.w3.org/2000/svg"
   xmlns:sodipodi="http://sodipodi.sourceforge.net/DTD/sodipodi-0.dtd"
   xmlns:inkscape="http://www.inkscape.org/namespaces/inkscape"
   version="1.1"
   id="svg112"
   width="2197.3333"
   height="2637.3333"
   viewBox="0 0 2197.3333 2637.3333"
   sodipodi:docname="om_saferuse_crop.svg"
   inkscape:version="1.0.2-2 (e86c870879, 2021-01-15)">
  <metadata
     id="metadata118">
    <rdf:RDF>
      <cc:Work
         rdf:about="">
        <dc:format>image/svg+xml</dc:format>
        <dc:type
           rdf:resource="http://purl.org/dc/dcmitype/StillImage" />
        <dc:title></dc:title>
      </cc:Work>
    </rdf:RDF>
  </metadata>
  <defs
     id="defs116" />
  <sodipodi:namedview
     pagecolor="#ffffff"
     bordercolor="#666666"
     borderopacity="1"
     objecttolerance="10"
     gridtolerance="10"
     guidetolerance="10"
     inkscape:pageopacity="0"
     inkscape:pageshadow="2"
     inkscape:window-width="3368"
     inkscape:window-height="1417"
     id="namedview114"
     showgrid="false"
     inkscape:zoom="0.36862865"
     inkscape:cx="1098.6666"
     inkscape:cy="1210.1563"
     inkscape:window-x="64"
     inkscape:window-y="-8"
     inkscape:window-maximized="1"
     inkscape:current-layer="g120" />
  <g
     inkscape:groupmode="layer"
     inkscape:label="Image"
     id="g120">
    <path
       style="fill:#e6e6e6;stroke-width:1.33333"
       d="m 370.57448,2512.1531 v -31.7547 l 25,-11.7234 c 13.75,-6.4479 37.75,-17.7586 53.33334,-25.135 l 28.33336,-13.4116 v -20.4436 c 0,-11.244 -0.5253,-20.4436 -1.16723,-20.4436 -0.64196,0 -13.69196,5.9347 -29,13.1882 -15.30804,7.2534 -38.6328,18.2588 -51.8328,24.4562 l -24,11.268 -0.34467,-74.0877 -0.34466,-74.0877 10.93642,-16.3607 c 6.01503,-8.9983 12.10927,-16.7328 13.54275,-17.1879 1.43348,-0.4549 15.86719,-7.1333 32.07491,-14.8409 28.95042,-13.7673 52.75868,-24.9611 91.82048,-43.1707 10.8269,-5.0472 20.2878,-9.1768 21.0241,-9.1768 0.8687,0 1.2134,11.0676 0.9815,31.5096 l -0.3575,31.5096 -36.6667,17.2292 c -20.1666,9.476 -44.01663,20.7627 -52.99996,25.0814 l -16.33334,7.8521 v 20.7424 c 0,11.4083 0.20915,20.7424 0.46476,20.7424 0.25562,0 8.50562,-3.8232 18.33334,-8.4959 54.1313,-25.7374 86.3173,-40.8374 87.0461,-40.8374 0.4523,0 0.8225,33.3329 0.8225,74.073 v 74.0732 l -10.8146,15.7496 -10.8146,15.7498 -36.1854,17.0937 c -19.90199,9.4016 -44.28543,20.9439 -54.18543,25.6496 -30.48495,14.4899 -57.29241,26.9444 -57.99613,26.9444 -0.3688,0 -0.67054,-14.2896 -0.67054,-31.7548 z m 190.9938,-196.5184 0.3395,-137.6065 34.6667,-16.3442 c 19.0667,-8.9892 41.5667,-19.6169 50,-23.617 44.8987,-21.2968 84.1755,-39.4924 85.2474,-39.4924 0.668,0 5.7636,2.4537 11.3236,5.4528 l 10.109,5.4526 -0.34,127.4299 -0.34,127.4299 -30.4514,14.4506 c -16.7482,7.948 -30.9982,14.4508 -31.6666,14.4508 -0.7108,0 -1.2153,-21.5884 -1.2153,-52 0,-29.316 -0.5154,-52 -1.1813,-52 -0.6497,0 -9.1997,3.8268 -19,8.5039 -9.8003,4.6771 -23.6687,11.2361 -30.8187,14.5756 l -13,6.0719 -0.015,53.0909 -0.015,53.0911 -30.3983,14.3333 c -16.719,7.8833 -31.115,14.3333 -31.9911,14.3333 -1.2268,0 -1.5148,-31.6217 -1.2532,-137.6065 z m 96.4207,-76.7795 30.5855,-14.3861 0.3672,-20.9472 c 0.2019,-11.5211 0.1621,-20.9473 -0.088,-20.9473 -0.2506,0 -14.4761,6.6 -31.6121,14.6666 -17.1361,8.0667 -31.3463,14.6667 -31.5782,14.6667 -0.232,0 -0.4218,9.3 -0.4218,20.6667 0,11.3666 0.4865,20.6666 1.0811,20.6666 0.5946,0 14.8446,-6.4737 31.6667,-14.386 z m 115.5793,-23.148 0.3395,-137.5341 22.7092,-10.7992 c 12.4901,-5.9396 28.9901,-13.7485 36.6667,-17.3532 31.5365,-14.8084 66.1557,-31.1508 91.2908,-43.0948 14.6667,-6.9696 29.8167,-14.0921 33.6667,-15.8281 l 7,-3.1563 v 31.9695 31.9694 l -18.3334,8.7202 c -10.0833,4.7961 -38.4333,18.1957 -63,29.7769 l -44.6666,21.0568 -0.3672,20.9035 c -0.202,11.4969 -0.1187,20.9034 0.1851,20.9034 0.3038,0 13.369,-6.0645 29.0339,-13.4768 15.6648,-7.4121 33.5815,-15.8734 39.8148,-18.8028 6.2334,-2.9293 21.3552,-10.0648 33.6041,-15.8565 12.2489,-5.7919 22.5989,-10.5305 23,-10.5305 0.4011,0 0.7293,14.3004 0.7293,31.7788 v 31.7788 l -49,23.0862 c -26.95,12.6976 -55.45,26.102 -63.3334,29.7878 l -14.3333,6.7013 v 53.176 53.1761 l -9.6667,4.4375 c -5.3166,2.4407 -16.8666,7.8705 -25.6666,12.0664 -19.536,9.3148 -27.1711,12.6777 -28.7835,12.6777 -0.744,0 -1.095,-54.27 -0.8894,-137.534 z m 213.0062,-100.2717 v -137.8059 l 23.00002,-10.7534 c 12.65,-5.9146 51.2,-24.065 85.6666,-40.3343 34.4667,-16.2695 67.0273,-31.5884 72.3569,-34.0423 l 9.6903,-4.4614 -0.3569,32.1916 -0.3569,32.1917 -62.6667,29.4785 -62.6666,29.4786 -0.3672,20.9313 c -0.202,11.5123 -0.1446,20.9313 0.1276,20.9313 0.2721,0 18.4373,-8.4665 40.3672,-18.8145 48.5631,-22.9153 84.8779,-39.8521 85.4485,-39.8521 0.2331,0 0.4238,14.3061 0.4238,31.7914 v 31.7915 l -14.3333,6.7637 c -16.2137,7.6512 -56.7729,26.7334 -90,42.343 l -22.3333,10.4918 v 21.0256 21.0256 l 15.6667,-7.4293 c 8.6166,-4.0861 24.3666,-11.4976 34.9999,-16.47 10.6334,-4.9724 26.5334,-12.4752 35.3334,-16.6728 8.8,-4.1976 21.55,-10.2287 28.3333,-13.4023 l 12.3333,-5.7702 -0.031,32.256 -0.032,32.256 -12.3018,5.587 c -13.1241,5.9607 -98.4773,46.1732 -146.8452,69.1834 -16.0657,7.6429 -29.71572,13.8962 -30.33352,13.8962 -0.6178,0 -1.1232,-62.0126 -1.1232,-137.8057 z m 212.00002,-100.0157 v -137.8215 l 9,-4.078 c 4.95,-2.2429 27.6,-12.8887 50.3333,-23.6572 41.9009,-19.848 77.0679,-36.39 98.4148,-46.2931 l 11.7481,-5.45 10.5852,5.161 10.5852,5.1608 v 74.8088 74.8088 l -9.3333,4.5152 c -5.1333,2.4833 -9.3293,4.8492 -9.3244,5.2576 0,0.4082 4.2049,3.0276 9.3333,5.8205 l 9.3244,5.0781 v 42.5694 42.5693 l -8.3333,4.2084 c -12.8535,6.4909 -53.3514,25.1633 -54.5761,25.1633 -0.5998,0 -1.0906,-23.4 -1.0906,-52 0,-28.6 -0.5182,-52 -1.1515,-52 -0.6334,0 -10.9834,4.6776 -23,10.3947 -12.0167,5.7171 -25.5918,12.1433 -30.1669,14.2805 l -8.3184,3.8859 -0.3483,53.2656 -0.3482,53.2655 -30.6275,14.4538 c -16.8451,7.9498 -31.0951,14.454 -31.6666,14.454 -0.5716,0 -1.0392,-62.0197 -1.0392,-137.8214 z m 96,-76.6472 30,-14.3402 0.3672,-20.9289 c 0.2019,-11.5109 0.143,-20.9289 -0.1308,-20.9289 -0.274,0 -14.2392,6.5361 -31.0339,14.5248 l -30.5358,14.5246 -0.3672,20.8087 c -0.2019,11.4447 0.098,20.7796 0.6667,20.7441 0.5686,-0.036 14.5338,-6.5173 31.0338,-14.4042 z m -926.67159,194.802 c -0.003,-7.15 -0.57209,-92.8 -1.26533,-190.3334 -0.69324,-97.5333 -1.64166,-243.9333 -2.10759,-325.3333 -0.46592,-81.4 -1.00649,-148.16 -1.20127,-148.3555 -0.19476,-0.1956 -31.49414,14.3998 -69.55418,32.4339 -38.06003,18.0341 -83.90005,39.7433 -101.86672,48.2427 -17.96667,8.4993 -48.71667,23.0996 -68.33333,32.4452 l -35.666671,16.992 v -85.2543 c 0,-80.0251 0.14312,-85.2996 2.33333,-85.9913 3.20166,-1.0111 63.928161,-29.7962 99.666671,-47.2431 28.55179,-13.9384 212.00692,-101.2921 225.33333,-107.2943 3.66667,-1.6514 24.06667,-11.2469 45.33333,-21.3231 21.2667,-10.0763 44.9667,-21.3035 52.6667,-24.9495 12.9227,-6.119 14.2565,-6.4871 17.3333,-4.7846 l 3.3333,1.8445 0.8918,27.952 c 0.4905,15.3736 1.0975,164.259 1.3488,330.8565 0.2514,166.5973 0.816,303.2633 1.2548,303.702 0.8645,0.8645 12.349,-4.4883 197.1713,-91.9014 67.8333,-32.0822 134.4333,-63.5678 148,-69.968 13.5667,-6.4001 59.2852,-28.003 101.5967,-48.0064 l 76.93002,-36.37 0.4033,-250.847 c 0.2218,-137.9659 0.3105,-251.0399 0.197,-251.2756 -0.1134,-0.2356 -93.07172,43.493 -206.57392,97.1748 -154.6475,73.1417 -206.8781,97.2812 -208.4041,96.3187 -1.12,-0.7066 -2.5389,-3.2238 -3.1531,-5.5939 -0.6141,-2.3702 -0.9248,-38.9208 -0.6902,-81.2236 0.4971,-89.6772 -0.1228,-85.2692 12.78,-90.8736 4.1695,-1.811 53.481,-24.9923 109.581,-51.514 l 102,-48.2211 0.3385,-166.96403 c 0.2705,-133.43411 0,-166.82372 -1.3334,-166.26541 -0.9195,0.38421 -67.0718,31.70364 -147.0051,69.59869 -125.0067,59.2636 -248.89136,117.834 -331.67139,156.80821 -12.28591,5.7844 -22.63591,10.51711 -23,10.51711 -0.36408,0 -0.66197,-41.7 -0.66197,-92.66667 0,-61.63553 0.45196,-92.66666 1.34964,-92.66666 0.7423,0 29.3923,-13.26072 63.66666,-29.46827 594.69058,-281.21532 583.24268,-275.86506 590.26308,-275.86506 2.0188,0 3.9567,1.16108 5.007,3 1.3728,2.40329 1.8462,53.26424 2.3803,255.70942 l 0.6667,252.70942 79.9999,-37.62961 c 44,-20.69628 87.5943,-41.26806 96.8763,-45.71508 9.7585,-4.67533 17.7719,-7.74174 19,-7.27049 2.1358,0.8196 2.678,144.99903 2.7724,737.19213 l 0.018,113.3292 -12,6.3846 c -14.6433,7.791 -45.9585,23.058 -64,31.2016 -17.0816,7.7104 -48.7557,22.7162 -111.3334,52.7454 -27.5,13.1964 -70.70002,33.7663 -96.00002,45.7107 -25.3,11.9445 -59.8,28.2848 -76.6666,36.3119 -60.6197,28.8496 -210.2079,99.6604 -253.3334,119.9208 -63.3966,29.7838 -103.3779,48.662 -177.70704,83.9086 -36.1389,17.137 -65.9889,31.1582 -66.33334,31.1582 -0.34442,0 -0.62845,-5.85 -0.63114,-13 z m 1152.00489,-131.4651 -10,-5.6213 -0.34,-126.788 c -0.2693,-100.4212 0.013,-127.0703 1.3333,-128.1456 0.9203,-0.7467 15.1734,-7.691 31.6734,-15.4318 l 30,-14.074 0.3413,105.263 c 0.2688,82.8774 0.6941,105.2592 2,105.2461 0.9123,-0.013 15.1587,-6.4865 31.6587,-14.394 l 30,-14.3773 0.3413,-106.2727 c 0.1877,-58.45 0.5068,-106.2727 0.7092,-106.2727 0.2023,0 14.3483,-6.6 31.4353,-14.6666 17.0872,-8.0667 31.3182,-14.6667 31.6243,-14.6667 0.306,0 0.5565,57.2168 0.5565,127.1484 v 127.1485 l -10.6986,15.8331 -10.6987,15.8331 -12.3013,5.8094 c -6.7658,3.1954 -19.8014,9.2952 -28.968,13.5555 -9.1667,4.2601 -37.0503,17.4041 -61.9635,29.2089 -24.9133,11.8047 -45.6133,21.4232 -46,21.3746 -0.3868,-0.049 -5.2032,-2.6182 -10.7032,-5.7099 z m 202.9763,-116.9045 0.357,-32.0363 45.3334,-21.3949 c 24.9333,-11.7674 48.4833,-22.8428 52.3333,-24.6124 l 7,-3.2174 v -20.6846 c 0,-11.3767 -0.3752,-20.6848 -0.8337,-20.6848 -0.765,0 -35.2448,16.1398 -83.0344,38.868 -10.561,5.0225 -19.711,9.132 -20.3334,9.132 -0.6225,0 -1.1318,-33.4896 -1.1318,-74.4215 v -74.4213 l 10.3333,-15.0844 10.3333,-15.0844 50.6667,-23.9152 c 27.8667,-13.1535 61.3167,-28.9116 74.3333,-35.0182 l 23.6667,-11.1029 v 31.9268 31.9268 l -19.6667,9.4013 c -22.6485,10.8268 -55.6216,26.3586 -72.9485,34.362 -6.5717,3.0355 -12.4125,6.2494 -12.9796,7.1418 -1.0569,1.6632 -1.534,40.9558 -0.4972,40.9558 0.5303,0 47.3183,-21.927 87.9012,-41.1945 9.4284,-4.4764 17.3784,-8.1388 17.6667,-8.1388 0.2882,0 0.5241,33.4971 0.5241,74.4377 v 74.4379 l -10.3333,15.2288 c -11.6706,17.1997 -7.1614,14.0941 -49,33.7471 -11.7334,5.5116 -41.103,19.3497 -65.2659,30.7514 -24.1629,11.4018 -44.1236,20.7304 -44.3571,20.7304 -0.2334,0 -0.2638,-14.4162 -0.068,-32.0362 z m 190.3596,-195.7372 v -138.2266 l 28.3306,-13.2658 c 15.582,-7.2963 35.2308,-16.5323 43.6642,-20.5246 70.9704,-33.5966 116.537,-54.8762 117.5077,-54.8762 0.6375,0 1.1589,14.1417 1.1589,31.426 v 31.4261 l -21,10.0369 c -11.55,5.5203 -24.9,11.8582 -29.6666,14.0842 -9.8724,4.6101 -53.4896,25.1877 -67,31.6089 l -9,4.2775 v 20.5702 c 0,11.3136 0.252,20.5702 0.5598,20.5702 0.8328,0 70.6772,-32.6192 105.2899,-49.1732 10.9173,-5.2215 20.078,-9.4935 20.3571,-9.4935 0.2789,0 0.3466,14.4059 0.1502,32.0129 l -0.357,32.013 -19.3334,9.1722 c -63.5048,30.1283 -97.2705,45.9878 -101.6666,47.7518 l -5,2.0064 v 21.1328 21.1328 l 8.3333,-3.7922 c 4.5833,-2.0857 14.3333,-6.618 21.6667,-10.0718 47.3024,-22.2787 57.9824,-27.3254 75.2009,-35.5356 10.5604,-5.0356 19.7104,-9.1556 20.3333,-9.1556 0.6228,0 1.1324,14.2544 1.1324,31.6765 v 31.6765 l -67.6666,31.8739 c -37.2167,17.5307 -80.1167,37.7281 -95.3334,44.8833 l -27.6666,13.0095 v -138.2265 z m -495.6712,-463.8892 0.3353,-427.37617 16.6667,-7.65727 c 9.1666,-4.21149 91.9666,-42.15938 184,-84.32865 92.0333,-42.16925 187.1333,-85.80724 211.3333,-96.97329 42.7569,-19.72839 155.3877,-71.37144 217.1673,-99.57476 16.7755,-7.65823 35.2255,-16.21576 41,-19.01676 l 10.4994,-5.09272 -0.036,424.84108 -0.036,424.84104 -6.2075,3.1346 c -7.4171,3.7453 -74.228,34.9706 -285.7193,133.5365 -86.9,40.4998 -158.45,73.9024 -159,74.228 -0.55,0.3254 -0.992,-39.7936 -0.9822,-89.1536 l 0.017,-89.7455 154.9822,-70.9609 154.9822,-70.9609 0.8125,-89.0391 c 0.9331,-102.34 1.4395,-408.3724 0.6748,-408.3724 -0.2815,0 -88.9315,40.47778 -197,89.95063 l -196.4877,89.95061 -0.3359,339.38276 c -0.2785,281.3618 -0.6392,339.3828 -2.1096,339.3828 -0.9755,0 -16.7243,6.9852 -34.9973,15.5226 -18.2732,8.5376 -50.4748,23.4731 -71.5592,33.1902 l -38.3355,17.6674 z M 1109.2411,632.36106 V 420.50345 l 19.6667,-9.57824 c 10.8167,-5.26803 39.1667,-18.67655 63,-29.79671 23.8333,-11.12016 47.2333,-22.17892 52,-24.575 7.7275,-3.88442 15.6492,-6.65745 16.2005,-5.67109 0.1103,0.19731 0.5603,58.6837 1,129.96978 l 0.7995,129.61107 160,-72.68295 C 1747.8425,389.71849 1758.2079,385.13294 1764.6097,386.1718 l 4.6314,0.75158 v 79.8674 c 0,74.85859 -0.1462,79.91952 -2.3333,80.69872 -1.2833,0.45724 -50.6333,22.70768 -109.6667,49.44541 -59.0333,26.73775 -138.2333,62.58559 -176,79.66188 -37.7666,17.07629 -135.5666,61.47649 -217.3333,98.66712 -81.7667,37.19061 -150.0167,67.91979 -151.6667,68.28704 l -3,0.66772 z m 229.6667,-148.41367 -3,-2.81013 0.02,-163.61473 c 0.013,-89.98809 0.4612,-164.23719 1,-164.99799 0.5388,-0.7608 3.3796,-2.34602 6.3129,-3.52272 2.9334,-1.17668 31.4334,-14.26756 63.3334,-29.09083 80.2549,-37.292787 74.6801,-34.854897 75.3969,-32.971617 0.3423,0.89931 0.468,76.912117 0.2793,168.917347 l -0.3425,167.28225 -3.3333,1.69817 c -19.7952,10.08476 -129.5472,60.51056 -133.3334,61.26031 -2.2293,0.44146 -4.3269,-0.27066 -6.3333,-2.15006 z"
       id="path124" />
  </g>
</svg>
