<?xml version="1.0" encoding="UTF-8" standalone="no"?>
<svg
   xmlns:dc="http://purl.org/dc/elements/1.1/"
   xmlns:cc="http://creativecommons.org/ns#"
   xmlns:rdf="http://www.w3.org/1999/02/22-rdf-syntax-ns#"
   xmlns:svg="http://www.w3.org/2000/svg"
   xmlns="http://www.w3.org/2000/svg"
   xmlns:sodipodi="http://sodipodi.sourceforge.net/DTD/sodipodi-0.dtd"
   xmlns:inkscape="http://www.inkscape.org/namespaces/inkscape"
   version="1.1"
   id="svg24"
   width="2794.6667"
   height="2794.6667"
   viewBox="0 0 2794.6667 2794.6667"
   sodipodi:docname="om_black,svg.svg"
   inkscape:version="1.0.2-2 (e86c870879, 2021-01-15)">
  <metadata
     id="metadata30">
    <rdf:RDF>
      <cc:Work
         rdf:about="">
        <dc:format>image/svg+xml</dc:format>
        <dc:type
           rdf:resource="http://purl.org/dc/dcmitype/StillImage" />
        <dc:title></dc:title>
      </cc:Work>
    </rdf:RDF>
  </metadata>
  <defs
     id="defs28" />
  <sodipodi:namedview
     pagecolor="#ffffff"
     bordercolor="#666666"
     borderopacity="1"
     objecttolerance="10"
     gridtolerance="10"
     guidetolerance="10"
     inkscape:pageopacity="0"
     inkscape:pageshadow="2"
     inkscape:window-width="2374"
     inkscape:window-height="1307"
     id="namedview26"
     showgrid="false"
     inkscape:zoom="0.36068701"
     inkscape:cx="1397.3334"
     inkscape:cy="1397.3334"
     inkscape:window-x="72"
     inkscape:window-y="0"
     inkscape:window-maximized="0"
     inkscape:current-layer="g32" />
  <g
     inkscape:groupmode="layer"
     inkscape:label="Image"
     id="g32">
    <path
       style="fill:#e6e6e6;stroke-width:1.55247"
       d="m 539.26281,2571.6064 c -0.003,-8.3251 -0.66612,-108.052 -1.4733,-221.6154 -0.80717,-113.5635 -1.91147,-284.0251 -2.45398,-378.8036 -0.54249,-94.7784 -1.1719,-172.5107 -1.3987,-172.7382 -0.22677,-0.2278 -36.67035,16.7663 -80.98574,37.7643 -44.31538,20.9983 -97.68944,46.2756 -118.60901,56.1718 -20.91957,9.8962 -56.72348,26.896 -79.56424,37.7776 l -41.52866,19.7848 v -99.2663 c 0,-93.1775 0.16664,-99.319 2.71684,-100.1243 3.72787,-1.1774 74.43506,-34.6933 116.04736,-55.0076 33.24439,-16.2292 246.85127,-117.94 262.36794,-124.9287 4.2693,-1.9229 28.02215,-13.0953 52.7841,-24.8276 24.76188,-11.7324 52.35709,-24.8048 61.32263,-29.0502 15.04672,-7.1245 16.59962,-7.5533 20.18222,-5.5709 l 3.88114,2.1476 1.03837,32.5461 c 0.57112,17.9003 1.27777,191.2556 1.57049,385.2342 0.29272,193.9784 0.95011,353.1061 1.4609,353.6169 1.00671,1.0066 14.37875,-5.2259 229.57742,-107.0057 78.98201,-37.3552 156.52791,-74.0157 172.32451,-81.4675 15.7963,-7.4521 69.029,-32.6056 118.2946,-55.8966 l 89.5738,-42.3475 0.4696,-292.075 c 0.2583,-160.641 0.3615,-292.2995 0.2293,-292.5738 -0.1319,-0.2745 -108.3684,50.6411 -240.5253,113.1458 -180.06449,85.163 -240.87938,113.2698 -242.65619,112.1493 -1.30407,-0.8227 -2.95617,-3.7537 -3.67133,-6.5134 -0.71514,-2.7597 -1.07679,-45.3176 -0.80363,-94.573 0.57879,-104.4161 -0.14298,-99.2837 14.88045,-105.8092 4.85478,-2.1088 62.27069,-29.1 127.591,-59.9805 l 118.7642,-56.1465 0.3942,-194.4054 c 0.3149,-155.3647 0,-194.24203 -1.5525,-193.59196 -1.0708,0.44736 -78.0954,36.91432 -171.16623,81.03756 -145.55209,69.004 -289.79771,137.2007 -386.18303,182.5805 -14.30516,6.7351 -26.35623,12.2456 -26.78016,12.2456 -0.42392,0 -0.77077,-48.5536 -0.77077,-107.8969 0,-71.7656 0.52625,-107.8969 1.57147,-107.8969 0.86429,0 34.22305,-15.44017 74.13058,-34.31155 692.43084,-327.43439 679.10144,-321.20479 687.27564,-321.20479 2.3506,0 4.607,1.35192 5.8299,3.49307 1.5984,2.79828 2.1497,62.01848 2.7714,297.7365 l 0.7763,294.24347 93.1484,-43.8142 c 51.2317,-24.0979 101.9907,-48.0507 112.7984,-53.2286 11.3622,-5.4438 20.6927,-9.0142 22.1227,-8.4654 2.4868,0.9543 3.1181,168.8302 3.228,858.3531 l 0.023,131.9554 -13.9724,7.4339 c -17.05,9.0715 -53.512,26.8477 -74.5187,36.3297 -19.889,8.9776 -56.769,26.4498 -129.6316,61.4144 -32.0196,15.3653 -82.3198,39.3159 -111.7781,53.2234 -29.4581,13.9078 -69.6284,32.9335 -89.2671,42.2799 -70.5828,33.5912 -244.75649,116.0401 -294.96987,139.6304 -73.81614,34.6789 -120.36855,56.6598 -206.91405,97.6995 -42.0785,19.9534 -76.83449,36.2791 -77.23554,36.2791 -0.40103,0 -0.73174,-6.8115 -0.73487,-15.1367 z m 1222.18779,-1057.2292 0.3905,-497.6176 19.4059,-8.9158 c 10.6733,-4.9037 107.0818,-49.08851 214.2412,-98.18844 107.1594,-49.09998 217.8896,-99.91008 246.067,-112.91133 49.7843,-22.97083 180.9266,-83.10168 252.8598,-115.94035 19.5326,-8.91688 41.0149,-18.88089 47.7387,-22.14226 l 12.2248,-5.92973 -0.041,494.66581 -0.041,494.6658 -7.2278,3.6497 c -8.636,4.3607 -86.4277,40.7182 -332.6785,155.4837 -101.1826,47.1563 -184.4921,86.0486 -185.1325,86.4277 -0.6403,0.379 -1.1549,-46.3338 -1.1435,-103.8063 l 0.02,-104.4955 180.4543,-82.6238 180.4541,-82.6236 0.9461,-103.6731 c 1.0864,-119.1601 1.6761,-475.49039 0.7857,-475.49039 -0.3276,0 -103.5477,47.13045 -229.378,104.73449 l -228.7816,104.7345 -0.3914,395.1618 c -0.3241,327.605 -0.7441,395.1619 -2.4562,395.1619 -1.1358,0 -19.4728,8.1332 -40.7492,18.074 -21.2766,9.9408 -58.7706,27.3309 -83.3204,38.645 l -44.6361,20.5712 z M 1402.4434,823.66139 V 576.98397 l 22.8991,-11.15247 c 12.5944,-6.13386 45.604,-21.74613 73.3543,-34.69394 27.7506,-12.94782 54.9965,-25.82413 60.5465,-28.61401 8.9975,-4.52286 18.2212,-7.75164 18.8633,-6.60316 0.1287,0.22972 0.6522,68.32864 1.1644,151.33093 l 0.9306,150.91328 186.2969,-84.62875 c 379.5035,-172.3965 391.5727,-177.73569 399.0266,-176.52611 l 5.3926,0.87512 v 92.99399 c 0,87.16195 -0.1703,93.05467 -2.7169,93.96194 -1.4941,0.53239 -58.9551,26.43979 -127.6908,57.57201 -68.7358,31.13222 -160.9528,72.87182 -204.9264,92.7547 -43.9739,19.88285 -157.8477,71.58044 -253.0532,114.88355 -95.2054,43.30305 -174.6727,79.08275 -176.5938,79.51045 l -3.4932,0.7774 z m 267.4136,-172.80616 -3.4931,-3.27199 0.024,-190.5056 c 0.015,-104.77807 0.537,-191.23035 1.1644,-192.1162 0.6273,-0.88584 3.935,-2.73159 7.3505,-4.10169 3.4154,-1.37007 36.5995,-16.6125 73.7425,-33.87206 93.445,-43.42204 86.9541,-40.58348 87.7887,-38.39067 0.3985,1.04712 0.5449,89.55301 0.3253,196.67973 l -0.3989,194.77591 -3.8812,1.97727 c -23.0486,11.74224 -150.8388,70.45576 -155.2473,71.32873 -2.5957,0.51401 -5.0381,-0.31514 -7.3743,-2.50343 z"
       id="path36" />
  </g>
</svg>
