<?xml version="1.0" encoding="UTF-8" standalone="no"?>
<svg
   xmlns:dc="http://purl.org/dc/elements/1.1/"
   xmlns:cc="http://creativecommons.org/ns#"
   xmlns:rdf="http://www.w3.org/1999/02/22-rdf-syntax-ns#"
   xmlns:svg="http://www.w3.org/2000/svg"
   xmlns="http://www.w3.org/2000/svg"
   xmlns:sodipodi="http://sodipodi.sourceforge.net/DTD/sodipodi-0.dtd"
   xmlns:inkscape="http://www.inkscape.org/namespaces/inkscape"
   version="1.1"
   id="svg343"
   width="273.06668"
   height="273.06668"
   viewBox="0 0 273.06668 273.06668"
   sodipodi:docname="play-box.svg"
   inkscape:version="1.0.2-2 (e86c870879, 2021-01-15)">
  <metadata
     id="metadata349">
    <rdf:RDF>
      <cc:Work
         rdf:about="">
        <dc:format>image/svg+xml</dc:format>
        <dc:type
           rdf:resource="http://purl.org/dc/dcmitype/StillImage" />
        <dc:title></dc:title>
      </cc:Work>
    </rdf:RDF>
  </metadata>
  <defs
     id="defs347" />
  <sodipodi:namedview
     pagecolor="#ffffff"
     bordercolor="#666666"
     borderopacity="1"
     objecttolerance="10"
     gridtolerance="10"
     guidetolerance="10"
     inkscape:pageopacity="0"
     inkscape:pageshadow="2"
     inkscape:window-width="3368"
     inkscape:window-height="1417"
     id="namedview345"
     showgrid="false"
     inkscape:zoom="3.6914061"
     inkscape:cx="136.53334"
     inkscape:cy="136.53334"
     inkscape:window-x="64"
     inkscape:window-y="-8"
     inkscape:window-maximized="1"
     inkscape:current-layer="g351" />
  <g
     inkscape:groupmode="layer"
     inkscape:label="Image"
     id="g351">
    <path
       style="fill:#e6e6e6;stroke-width:1.06667"
       d="M 10.666667,136.53334 V 10.666667 H 136.53334 262.40001 V 136.53334 262.40001 H 136.53334 10.666667 Z m 235.733343,0 V 26.666668 H 136.53334 26.666668 V 136.53334 246.40001 H 136.53334 246.40001 Z m -171.73334,0 V 57.735769 l 61.06667,38.865153 c 33.58667,21.375828 61.06667,39.345418 61.06667,39.932418 0,0.587 -27.48,18.55659 -61.06667,39.93242 l -61.06667,38.86515 z m 52.63415,19.2 c 16.1959,-10.26667 29.44709,-18.90667 29.44709,-19.2 0,-0.50369 -57.848329,-37.465461 -59.821049,-38.222224 -0.514166,-0.197242 -0.926856,16.821474 -0.926856,38.222224 0,21.40075 0.41269,38.41947 0.926856,38.22222 0.509772,-0.19555 14.178049,-8.75555 30.373959,-19.02222 z"
       id="path355" />
  </g>
</svg>
