<?xml version="1.0" encoding="UTF-8" standalone="no"?>
<svg
   xmlns:dc="http://purl.org/dc/elements/1.1/"
   xmlns:cc="http://creativecommons.org/ns#"
   xmlns:rdf="http://www.w3.org/1999/02/22-rdf-syntax-ns#"
   xmlns:svg="http://www.w3.org/2000/svg"
   xmlns="http://www.w3.org/2000/svg"
   xmlns:sodipodi="http://sodipodi.sourceforge.net/DTD/sodipodi-0.dtd"
   xmlns:inkscape="http://www.inkscape.org/namespaces/inkscape"
   version="1.1"
   id="svg37"
   width="682.66669"
   height="682.66669"
   viewBox="0 0 682.66669 682.66669"
   sodipodi:docname="QIcon_inverted.svg"
   inkscape:version="1.0.2-2 (e86c870879, 2021-01-15)">
  <metadata
     id="metadata43">
    <rdf:RDF>
      <cc:Work
         rdf:about="">
        <dc:format>image/svg+xml</dc:format>
        <dc:type
           rdf:resource="http://purl.org/dc/dcmitype/StillImage" />
        <dc:title></dc:title>
      </cc:Work>
    </rdf:RDF>
  </metadata>
  <defs
     id="defs41" />
  <sodipodi:namedview
     pagecolor="#ffffff"
     bordercolor="#666666"
     borderopacity="1"
     objecttolerance="10"
     gridtolerance="10"
     guidetolerance="10"
     inkscape:pageopacity="0"
     inkscape:pageshadow="2"
     inkscape:window-width="3368"
     inkscape:window-height="1417"
     id="namedview39"
     showgrid="false"
     inkscape:zoom="1.4765625"
     inkscape:cx="244.8254"
     inkscape:cy="341.33334"
     inkscape:window-x="64"
     inkscape:window-y="-8"
     inkscape:window-maximized="1"
     inkscape:current-layer="g45" />
  <g
     inkscape:groupmode="layer"
     inkscape:label="Image"
     id="g45"
     style="display:inline">
    <path
       style="fill:#000000;stroke-width:1.33333"
       d="m 286.36099,595.17781 c -7.84485,-0.62438 -21.70436,-2.64184 -30.7989,-4.48328 -16.00845,-3.24135 -38.90142,-10.17776 -41.21001,-12.48635 -0.62165,-0.62165 7.1353,-6.06969 17.23766,-12.10675 19.21068,-11.48006 47.2316,-30.87985 58.01761,-40.16745 l 6.31632,-5.43886 15.49682,-0.61194 c 72.89027,-2.87831 136.91104,-48.39007 163.08568,-115.93607 9.74018,-25.13539 11.42963,-34.98668 11.31868,-66.00001 -0.0828,-23.13132 -0.52208,-28.95977 -2.85781,-37.91308 l -2.76004,-10.57974 8.55508,-19.09783 c 9.95531,-22.22364 19.65311,-46.34542 26.02621,-64.73618 2.47651,-7.14641 4.93311,-12.99641 5.45912,-13 1.68686,-0.012 16.07766,25.53326 22.53062,39.9935 40.00624,89.64872 25.20317,195.3906 -37.9873,271.35242 l -9.96657,11.98092 31.16967,0.66667 c 18.29383,0.39128 31.62755,1.21745 32.27809,2 0.60963,0.73333 16.65298,17.08333 35.65187,36.33333 l 34.54347,35 -80.58812,-0.0599 -80.58811,-0.0599 -14.66667,-13.9324 c -8.06667,-7.66281 -15.12757,-13.93587 -15.69089,-13.94012 -0.56332,-0.004 -6.86333,2.91647 -14.00001,6.49048 -41.94469,21.00573 -90.09861,30.43131 -136.57247,26.73248 z M 164.37007,552.75707 C 119.15772,522.29051 86.581396,481.87267 66.641747,431.50431 44.462777,375.47937 43.490787,308.83502 64.003487,250.61377 77.095327,213.45514 102.87337,174.82235 132.81561,147.48705 210.81332,76.280268 324.61033,59.720638 419.19332,105.81364 c 24.86549,12.11767 50.38885,29.86175 65.75719,45.71502 l 5.65948,5.83807 -7.22903,23.95685 c -22.36151,74.10559 -48.98539,132.4211 -85.20279,186.62353 -36.39199,54.46372 -85.3216,105.32716 -136.88715,142.29728 -27.12207,19.44528 -78.5278,49.09046 -84.97578,49.0047 -1.29665,-0.0172 -6.67198,-2.93866 -11.94517,-6.49202 z m 42.99433,-84.55461 c 73.52607,-44.96005 138.71606,-102.74985 194.43349,-172.36192 13.29933,-16.61588 36.77808,-49.16453 46.63875,-64.65541 2.17889,-3.42299 2.16251,-3.44995 -9.91835,-16.32202 -26.71475,-28.46436 -59.60901,-46.62402 -99.89394,-55.14761 -16.69765,-3.53295 -50.6078,-3.18959 -68.91788,0.69783 -58.5318,12.42686 -104.19077,48.67297 -129.59055,102.87467 -17.66389,37.69376 -20.95994,85.12795 -8.84747,127.32577 4.98251,17.35826 17.55378,42.16386 29.17214,57.56247 10.45273,13.85372 26.031,29.77087 29.13703,29.77087 1.01789,0 9.02196,-4.38509 17.78678,-9.74465 z"
       id="path49" />
  </g>
</svg>
