<?xml version="1.0" encoding="UTF-8" standalone="no"?>
<svg
   xmlns:dc="http://purl.org/dc/elements/1.1/"
   xmlns:cc="http://creativecommons.org/ns#"
   xmlns:rdf="http://www.w3.org/1999/02/22-rdf-syntax-ns#"
   xmlns:svg="http://www.w3.org/2000/svg"
   xmlns="http://www.w3.org/2000/svg"
   xmlns:sodipodi="http://sodipodi.sourceforge.net/DTD/sodipodi-0.dtd"
   xmlns:inkscape="http://www.inkscape.org/namespaces/inkscape"
   version="1.1"
   id="svg48"
   width="2560"
   height="1012"
   viewBox="0 0 2560 1012"
   sodipodi:docname="quantum-function.svg"
   inkscape:version="1.0.2-2 (e86c870879, 2021-01-15)">
  <metadata
     id="metadata54">
    <rdf:RDF>
      <cc:Work
         rdf:about="">
        <dc:format>image/svg+xml</dc:format>
        <dc:type
           rdf:resource="http://purl.org/dc/dcmitype/StillImage" />
        <dc:title></dc:title>
      </cc:Work>
    </rdf:RDF>
  </metadata>
  <defs
     id="defs52" />
  <sodipodi:namedview
     pagecolor="#ffffff"
     bordercolor="#666666"
     borderopacity="1"
     objecttolerance="10"
     gridtolerance="10"
     guidetolerance="10"
     inkscape:pageopacity="0"
     inkscape:pageshadow="2"
     inkscape:window-width="3368"
     inkscape:window-height="1417"
     id="namedview50"
     showgrid="false"
     inkscape:zoom="0.39570312"
     inkscape:cx="1280"
     inkscape:cy="506"
     inkscape:window-x="64"
     inkscape:window-y="-8"
     inkscape:window-maximized="1"
     inkscape:current-layer="g56" />
  <g
     inkscape:groupmode="layer"
     inkscape:label="Image"
     id="g56">
    <path
       style="fill:#e6e6e6;stroke-width:1.33333"
       d="m 170.27339,960.49561 c -0.51703,-0.51704 -0.94006,-42.84005 -0.94006,-94.05117 v -93.11111 h -66 -65.999997 V 762.66667 752 h 65.999997 66 V 553.33333 354.66667 h -10.09776 c -8.16646,0 -10.01532,-0.3728 -9.66666,-1.94916 0.23709,-1.07206 6.13109,-14.26522 13.09776,-29.31815 l 12.66666,-27.36897 5.39528,-0.0152 5.39527,-0.0152 13.57761,29 13.5776,29 -10.63954,0.38725 L 192,354.77449 v 191.48607 c 0,182.24877 0.11253,191.38856 2.33333,189.46484 C 200.19056,730.65169 278.62729,665.89279 308,641.88 477.61132,503.21928 610.19423,405.41429 728,332.05048 920.46968,212.18955 1082.5159,154.29892 1212,159.14256 c 187.7993,7.02505 417.1671,122.94819 740,373.99828 61.6355,47.93061 142.8633,113.60244 214.9575,173.79081 17.3933,14.52092 31.9433,26.40168 32.3333,26.40168 0.3901,0 0.7092,-85.2 0.7092,-189.33333 V 354.66667 h -10 c -5.6573,0 -10,-0.56875 -10,-1.30968 0,-0.72032 5.85,-13.92003 13,-29.33268 l 13,-28.023 5.3688,-6.6e-4 5.3688,-6.5e-4 13.5389,29 13.5388,29 -10.5742,0.38725 -10.5744,0.38726 V 553.38725 752 H 2283.3333 2344 v -10.66667 c 0,-5.86666 0.4957,-10.66666 1.1016,-10.66666 0.606,0 13.656,5.89349 29,13.09664 L 2402,756.85995 v 5.67474 5.67475 l -28,13.16719 c -15.4,7.24196 -28.45,13.19482 -29,13.22861 -0.55,0.0338 -1,-4.73857 -1,-10.60524 v -10.66667 h -95.0663 -95.0664 l -2.5709,10.33334 c -8.2363,33.10306 -32.2053,58.4693 -64.6668,68.43633 -8.0672,2.47695 -13.1343,3.06853 -26.6296,3.10908 -14.5713,0.0437 -18.1365,-0.41276 -28.3577,-3.63131 l -11.6911,-3.68137 -10.9756,3.60965 c -9.6085,3.16006 -13.1345,3.61548 -28.3089,3.65644 -15.2456,0.0412 -18.7415,-0.39362 -29.0244,-3.60965 l -11.6911,-3.65644 -10.9756,3.60965 c -9.6273,3.16626 -13.1048,3.61318 -28.3089,3.63838 -15.2319,0.0252 -18.7434,-0.41474 -28.9635,-3.62891 l -11.6301,-3.65761 -11.0366,3.6289 c -9.671,3.17994 -13.181,3.63527 -28.3698,3.68042 -15.5835,0.0463 -18.4858,-0.3325 -28.7491,-3.75244 l -11.4156,-3.80396 -11.2511,3.82852 c -10.3194,3.51157 -12.741,3.8177 -29.2509,3.69789 -15.9775,-0.116 -19.1236,-0.53368 -28,-3.71749 -5.5,-1.97276 -10.6,-3.58684 -11.3333,-3.58684 -0.7334,0 -5.8334,1.61408 -11.3334,3.58684 -8.8764,3.18381 -12.0225,3.60153 -28,3.71749 -16.6312,0.12067 -18.8618,-0.16689 -29.3333,-3.78172 -6.2333,-2.15179 -11.9333,-3.69707 -12.6667,-3.43396 -19.4396,6.97483 -19.8732,7.05853 -37.3333,7.20844 -15.5271,0.13333 -18.5681,-0.24087 -29.1828,-3.59071 l -11.8495,-3.73952 -11.4838,3.72526 c -10.2387,3.3213 -13.3635,3.71796 -28.8172,3.65796 -15.1404,-0.0588 -18.7219,-0.52396 -28.309,-3.67694 l -10.9756,-3.60965 -11.691,3.6442 c -10.0667,3.13787 -14.0068,3.64937 -28.3578,3.68139 -14.5416,0.0324 -18.1541,-0.43127 -28.3333,-3.63678 l -11.6667,-3.67393 -11.6666,3.66741 c -10.1263,3.18316 -13.8674,3.6674 -28.3334,3.6674 -14.466,0 -18.2071,-0.48424 -28.3333,-3.6674 l -11.6667,-3.66741 -11.6666,3.67393 c -10.1792,3.20551 -13.7917,3.6692 -28.3334,3.63678 -14.3509,-0.032 -18.291,-0.54352 -28.3577,-3.68139 l -11.6911,-3.6442 -10.9756,3.60965 c -9.6259,3.16579 -13.107,3.61335 -28.3089,3.63975 -15.366,0.0267 -18.6491,-0.39253 -28.9261,-3.69345 l -11.5928,-3.72356 -11.0739,3.76954 c -10.1185,3.44434 -12.6268,3.75827 -29.0739,3.63891 -15.9774,-0.116 -19.1236,-0.53368 -28,-3.71749 -5.5,-1.97276 -10.6,-3.58684 -11.3333,-3.58684 -0.7333,0 -5.8333,1.61408 -11.3333,3.58684 -8.8764,3.18381 -12.0226,3.60153 -28,3.71749 -16.6312,0.12067 -18.8619,-0.16689 -29.33337,-3.78172 -6.23333,-2.15179 -11.93333,-3.69707 -12.66666,-3.43396 -19.82515,7.11316 -19.66931,7.08384 -38,7.15007 -16.37823,0.0592 -19.02112,-0.27895 -29.33334,-3.75268 C 907.1,849.2222 901.4,847.70644 900.66667,847.95359 c -0.73334,0.24716 -5.53334,1.93586 -10.66667,3.75269 -8.11652,2.87265 -11.68004,3.31179 -27.33333,3.36835 -16.09894,0.0581 -19.15919,-0.31731 -28.9756,-3.55511 l -10.9756,-3.62012 -11.69107,3.6442 c -10.06668,3.13787 -14.00677,3.64937 -28.35773,3.68139 -14.54164,0.0324 -18.15419,-0.43127 -28.33334,-3.63678 L 742.66667,847.91428 731,851.55104 c -10.03989,3.12967 -13.99064,3.64195 -28.33333,3.67395 -14.54954,0.0324 -18.15176,-0.43047 -28.35774,-3.64422 l -11.69106,-3.68137 -10.9756,3.60965 c -9.60855,3.16006 -13.13454,3.61548 -28.30894,3.65644 -15.24558,0.0412 -18.74149,-0.39362 -29.0244,-3.60965 l -11.69106,-3.65644 -10.9756,3.60965 c -9.62739,3.16626 -13.10478,3.61318 -28.30894,3.63838 -15.23188,0.0252 -18.74334,-0.41474 -28.96348,-3.62891 l -11.63014,-3.65761 -11.03652,3.6289 c -9.67327,3.18064 -13.17758,3.635 -28.36986,3.67835 -15.48046,0.0441 -18.5663,-0.35273 -28.86764,-3.71293 l -11.53432,-3.76238 -11.13234,3.76615 c -9.8232,3.32327 -13.09235,3.77107 -27.79903,3.80792 -18.45269,0.0463 -29.02195,-2.37921 -44.61968,-10.23944 C 317.25469,833.87764 298.43811,810.15063 292.56885,786 c -1.24753,-5.13333 -2.46705,-10.08333 -2.71004,-11 -0.34322,-1.29485 -11.3062,-1.66667 -49.14129,-1.66667 H 192.01801 L 191.67567,867 l -0.34234,93.66667 -10.05994,0.38449 c -5.53298,0.21148 -10.48298,-0.0385 -11,-0.55555 z m 223.31436,-128.23912 4.92108,-0.92316 -6.63668,-8 C 380.83827,810.03284 373.50856,794.49531 370.01476,777 l -0.73223,-3.66667 h -28.12298 -28.12299 l 0.8864,5 c 0.48753,2.75 2.96845,9.44207 5.51316,14.87126 9.34943,19.94714 31.58284,36.31916 53.23055,39.19737 6.69876,0.89064 15.73276,0.82783 20.92108,-0.14547 z m 79.85025,0 4.77132,-0.92316 -7.59808,-9.53457 -7.59808,-9.53457 -4.73056,6.20124 c -2.60181,3.41068 -6.33521,7.70124 -8.29645,9.53457 l -3.5659,3.33333 5.1232,0.81079 c 7.2396,1.14573 16.31296,1.19231 21.89455,0.1124 z m 78.97956,0.23758 6.12309,-0.83926 -7.53625,-9.16074 c -4.14493,-5.0384 -7.78023,-9.16074 -8.07843,-9.16074 -0.2982,0 -1.82345,1.65 -3.38944,3.66667 -1.56597,2.01667 -5.14312,6.17801 -7.9492,9.24744 l -5.10194,5.58077 5.09064,0.52843 c 9.18349,0.95327 14.62746,0.98916 20.84153,0.13743 z m 79.18181,-0.0168 6.9327,-0.83283 -7.4524,-8.82224 c -4.09882,-4.85224 -7.81854,-8.92205 -8.26603,-9.04401 -0.44751,-0.122 -4.25975,3.89204 -8.47165,8.92002 l -7.658,9.14179 4.99133,0.52251 c 8.95825,0.93776 12.88493,0.96037 19.92405,0.1148 z m 79.95508,0.005 6.88778,-0.82751 -7.48866,-8.82756 C 706.8348,817.9724 703.01273,814 702.46008,814 c -0.55265,0 -4.31636,4.01473 -8.36379,8.92161 l -7.35897,8.92163 4.96468,0.52091 c 8.91237,0.93512 12.85921,0.95868 19.85245,0.11853 z m 79.99331,8e-4 6.88111,-0.82672 -8.20615,-9.66097 c -7.985,-9.40063 -8.25801,-9.58464 -10.13121,-6.82836 -1.05879,1.55793 -4.55243,5.94401 -7.76364,9.74684 l -5.83858,6.91422 5.0887,0.52831 c 9.08333,0.94303 12.96981,0.96768 19.96977,0.12667 z m 80.11767,-0.0139 6.99876,-0.84065 -5.04872,-5.48109 c -2.7768,-3.0146 -6.44951,-7.37756 -8.16156,-9.69548 l -3.11284,-4.21438 -7.61132,9.54771 -7.61132,9.54772 4.10745,0.82448 c 5.87036,1.17835 12.39587,1.27785 20.43955,0.31169 z m 85.33172,-1.02221 c 0.3333,-0.33331 -0.98163,-2.29531 -2.92207,-4.35999 -1.94044,-2.06468 -5.41721,-6.19117 -7.72615,-9.16996 l -4.19806,-5.416 -7.61644,9.416 -7.61643,9.41599 4.20767,0.91043 c 4.29909,0.9302 24.77518,0.29984 25.87148,-0.79647 z m 79.93895,0.0611 c 0.2997,-0.29972 -0.9719,-2.18162 -2.8258,-4.182 -1.8539,-2.00039 -5.3189,-6.17483 -7.7,-9.27655 l -4.3293,-5.63949 -7.5962,9.4615 -7.5962,9.46151 4.2224,0.91043 c 4.1801,0.90132 24.7748,0.31486 25.8251,-0.7354 z m 75.2675,0.74813 4.8702,-0.92316 -7.7024,-9.52753 -7.7023,-9.52755 -4.8546,6.36577 c -2.67,3.50119 -6.3886,7.89979 -8.2635,9.7747 l -3.4089,3.4089 5.0956,0.52872 c 8.6792,0.90055 16.885,0.86324 21.9659,-0.0999 z m 78.8806,0.23757 6.1231,-0.83925 -7.5362,-9.16075 c -4.145,-5.0384 -7.8666,-9.11405 -8.2704,-9.05698 -0.4037,0.0571 -4.1801,4.22106 -8.392,9.25336 l -7.658,9.14961 4.9913,0.52251 c 9.0464,0.94698 14.5386,0.98181 20.7422,0.13146 z m 79.9353,0.009 6.0583,-0.83039 -7.4911,-9.16961 c -4.1201,-5.0433 -7.8126,-9.12294 -8.2056,-9.06587 -0.3929,0.0571 -4.1605,4.22107 -8.3724,9.25336 l -7.658,9.14961 4.9913,0.52251 c 9.0274,0.945 14.5344,0.98239 20.6775,0.14039 z m 79.2465,-0.0256 6.9328,-0.83283 -7.4845,-8.82224 c -4.1164,-4.85224 -7.8658,-8.82225 -8.3319,-8.82225 -0.466,0 -4.2517,4.01317 -8.4128,8.91816 l -7.5655,8.91816 4.2979,0.53512 c 7.4917,0.93277 13.4264,0.96333 20.564,0.10586 z m 79.9484,0.007 6.8811,-0.82672 -8.2144,-9.69354 c -6.8072,-8.03291 -8.422,-9.31692 -9.4262,-7.49503 -0.6664,1.20919 -4.1429,5.61072 -7.7257,9.78117 l -6.5141,7.58266 5.059,0.52654 c 9.0424,0.94111 12.9435,0.96555 19.9403,0.12494 z m 80.1177,-0.0139 6.9987,-0.84066 -5.0487,-5.48109 c -2.7768,-3.0146 -6.4792,-7.41767 -8.2274,-9.7846 l -3.1787,-4.30351 -2.0215,2.97018 c -1.1117,1.6336 -4.6468,6.07932 -7.8557,9.8794 l -5.8343,6.90922 4.4178,0.54406 c 7.6637,0.94381 13.531,0.97406 20.7498,0.10693 z m 85.3331,-1.02364 c 0.3341,-0.33408 -2.9101,-4.69608 -7.2096,-9.69332 l -7.8169,-9.08588 -7.5998,9.58614 -7.5996,9.58614 4.2804,0.61912 c 4.8507,0.70162 25.0186,-0.0852 25.9455,-1.0122 z m 79.9987,10e-4 c 0.3332,-0.33331 -0.9818,-2.29531 -2.9222,-4.35999 -1.9404,-2.06468 -5.4172,-6.19117 -7.7261,-9.16996 l -4.198,-5.416 -7.6165,9.416 -7.6164,9.41599 4.2076,0.91043 c 4.2992,0.9302 24.7752,0.29984 25.8716,-0.79647 z m 80.101,-0.10107 c 0.389,-0.3889 -0.2214,-1.4509 -1.3562,-2.35998 -1.135,-0.9091 -4.7782,-5.04894 -8.0962,-9.19966 l -6.0326,-7.54677 -4.0175,5.54677 c -2.2097,3.05072 -5.9064,7.45852 -8.2151,9.79514 l -4.1976,4.24836 5.0751,0.61269 c 6.0171,0.72639 25.8265,-0.0829 26.8401,-1.09655 z m 75.0064,0.91028 4.7714,-0.92316 -7.5982,-9.53457 -7.598,-9.53457 -4.86,6.37281 c -2.6729,3.50504 -6.394,7.90681 -8.2689,9.78172 l -3.4088,3.40891 5.0956,0.52872 c 8.6808,0.9007 16.8893,0.86322 21.8669,-0.0999 z m 78.9796,0.23758 6.1231,-0.83926 -7.5363,-9.16074 c -4.1449,-5.0384 -7.7802,-9.16074 -8.0784,-9.16074 -0.2982,0 -1.8234,1.65 -3.3894,3.66667 -1.566,2.01667 -5.1431,6.17801 -7.9492,9.24744 l -5.102,5.58077 5.0906,0.52843 c 9.1835,0.95327 14.6275,0.98916 20.8416,0.13743 z m 79.1818,-0.0168 6.9328,-0.83283 -7.4524,-8.82224 c -4.099,-4.85224 -7.8187,-8.92205 -8.2662,-9.04401 -0.4474,-0.122 -4.2597,3.89204 -8.4716,8.92002 l -7.658,9.14179 4.9914,0.52251 c 8.9582,0.93776 12.8849,0.96037 19.924,0.1148 z m 91.2253,-2.37704 c 11.9329,-3.61824 24.4935,-11.55591 32.8615,-20.76695 5.1566,-5.676 12.4468,-18.85908 15.0896,-27.28684 1.3877,-4.42557 2.5309,-8.19649 2.5404,-8.37983 0.013,-0.18333 -12.7328,-0.33117 -28.3162,-0.32852 l -28.3333,0.005 -2.3668,9.66186 c -3.3801,13.79776 -11.3256,29.58028 -20.0943,39.91384 l -7.5678,8.91864 5.0144,0.60492 c 7.8774,0.95028 24.4116,-0.29188 31.1725,-2.34193 z M 437.87101,807.39117 c 2.42408,-2.96514 6.36126,-9.15209 8.7493,-13.74877 3.7369,-7.19313 4.21701,-9.1902 3.44574,-14.33333 l -0.89612,-5.97574 h -28.09276 -28.09274 l 0.79061,4.87204 c 1.63509,10.07587 9.80004,24.31223 19.51624,34.02844 l 9.29211,9.29211 5.4401,-4.37179 c 2.99206,-2.40448 7.42344,-6.79781 9.84752,-9.76296 z m 80.05475,-0.28049 c 2.40408,-2.81087 6.2846,-8.90364 8.62336,-13.53948 3.61567,-7.16685 4.11975,-9.3128 3.36687,-14.33333 l -0.88544,-5.90454 H 502.51528 476 l -0.20736,4.33334 c -0.38411,8.02666 0.37384,10.83534 5.10032,18.89985 5.80555,9.90567 9.74979,14.65641 16.80051,20.23585 l 5.46086,4.32134 5.20019,-4.45116 c 2.86011,-2.44815 7.16716,-6.75099 9.57124,-9.56187 z m 235.96291,3.94603 c 5.9859,-6.09082 15.1479,-21.28142 15.56146,-25.80095 0.16387,-1.79067 0.20462,-5.20576 0.0905,-7.58909 l -0.20734,-4.33334 h -26.49625 -26.49625 l -0.88616,5.54171 c -1.35643,8.48261 5.58886,22.0366 17.16628,33.50065 l 9.01325,8.92499 3.64243,-2.59364 c 2.00334,-1.42651 5.87876,-4.86916 8.61204,-7.65033 z m 81.52304,-2.06452 c 8.69938,-9.6377 14.87458,-22.72912 14.1761,-30.05336 l -0.53457,-5.6055 H 822.60832 796.1634 l -0.88821,5.92299 c -1.27874,8.52721 5.17078,20.94581 17.13802,32.99943 l 9.0799,9.1454 3.80357,-2.70839 c 2.09197,-1.48961 6.64373,-5.85487 10.11503,-9.70057 z m 81.35014,-1.4179 c 7.85398,-9.09909 12.77838,-20.03834 12.30718,-27.33966 L 928.66667,774 l -26.1706,-0.36097 -26.17059,-0.36099 -0.8112,3.02765 c -2.59393,9.68138 3.56081,22.80016 16.91825,36.06111 l 9.0992,9.03347 5.20931,-4.12584 c 2.86512,-2.26922 7.37448,-6.63428 10.02081,-9.70014 z m 80.9211,-1.4749 c 9.32845,-11.74247 13.53475,-23.63728 10.84105,-30.657 -0.6993,-1.82231 -4.3055,-2.10906 -26.524,-2.10906 -28.43367,0 -27.33333,-0.35918 -27.33333,8.92242 0,7.11417 7.51936,19.92444 17.70353,30.16042 l 9.03687,9.08284 5.45038,-4.31678 c 2.99771,-2.37423 7.86919,-7.36151 10.8255,-11.08284 z m 78.86075,1.29178 c 6.0521,-7.39281 12.7935,-20.36674 12.7714,-24.57886 -0.011,-1.91344 -0.3832,-4.84142 -0.8294,-6.50662 l -0.8112,-3.02765 -26.1706,0.36099 -26.1706,0.36097 -0.4023,6.23463 c -0.5863,9.08476 5.6632,20.7093 17.2773,32.13712 l 9.1858,9.03841 5.3681,-4.31391 c 2.9524,-2.37264 7.3541,-6.73993 9.7815,-9.70508 z m 79.994,0 c 2.4241,-2.96514 6.3612,-9.15209 8.7493,-13.74877 3.7369,-7.19313 4.217,-9.1902 3.4457,-14.33333 l -0.8961,-5.97574 h -26.4391 -26.4391 l -0.7101,5 c -1.1663,8.2126 7.5199,24.60652 18.4599,34.84036 l 8.7499,8.18506 5.3361,-4.2882 c 2.9348,-2.35851 7.3194,-6.71423 9.7435,-9.67938 z m 80.8318,-1.27128 c 7.4124,-8.97 12.2152,-20.74506 11.158,-27.35628 l -0.8683,-5.43028 h -26.4963 -26.4962 l -0.2074,4.33334 c -0.3762,7.86066 0.3614,10.92506 4.2806,17.78501 5.1795,9.06573 10.3844,15.47052 17.1995,21.16437 l 5.6414,4.71324 5.5017,-4.70926 c 3.026,-2.5901 7.6551,-7.31515 10.287,-10.50014 z m 155.508,4.73394 c 5.9234,-6.08907 15.1857,-21.51868 15.4282,-25.7015 0.1,-1.73378 0.073,-5.10233 -0.061,-7.48566 L 1408,773.33333 h -26.4963 -26.4962 l -0.8862,5.54171 c -1.3564,8.48261 5.5888,22.0366 17.1663,33.50065 l 9.0132,8.92499 3.9275,-2.79652 c 2.16,-1.53808 6.0521,-4.98073 8.6492,-7.65033 z m 80.9089,-1.43002 c 8.3661,-8.94414 15.5424,-24.22109 14.6045,-31.09048 l -0.6826,-5 h -26.3695 -26.3693 l -0.885,5.90064 c -1.2762,8.51151 5.7618,22.06503 17.4264,33.5587 l 8.6998,8.57221 3.6026,-2.56527 c 1.9814,-1.4109 6.4692,-5.63001 9.9731,-9.3758 z m 81.6792,-1.84952 c 7.5428,-8.67181 13.4347,-21.86422 12.7889,-28.63546 l -0.5346,-5.6055 h -26.445 -26.4449 l -0.9044,6.0313 c -1.2845,8.56608 5.0732,20.7593 17.1625,32.91502 l 9.0883,9.13808 5.2203,-4.13457 c 2.8712,-2.27401 7.4021,-6.64301 10.0689,-9.70887 z m 80.2684,-0.61497 c 8.2199,-9.857 12.4781,-19.33657 12.002,-26.71839 L 1647.3333,774 l -25.903,-0.36295 c -19.8315,-0.27788 -26.1554,0.0347 -26.9795,1.33334 -4.4033,6.93792 3.1063,23.89069 16.586,37.44312 l 9.0369,9.0855 5.2064,-4.12352 c 2.8635,-2.26793 7.5678,-6.95521 10.4539,-10.41617 z m 82.1973,-2.86587 c 8.5639,-11.6663 12.3052,-23.83857 8.9512,-29.12306 -0.8241,-1.2987 -7.148,-1.61122 -26.9794,-1.33334 L 1674,774 l -0.4024,6.23463 c -0.5869,9.09494 5.6623,20.7083 17.3105,32.16968 l 9.219,9.07097 6.5449,-5.47976 c 3.5997,-3.01388 8.6665,-8.3698 11.2593,-11.90207 z m 77.2731,3.29772 c 2.424,-2.96514 6.3612,-9.15209 8.7492,-13.74877 3.7369,-7.19313 4.2171,-9.1902 3.4457,-14.33333 l -0.896,-5.97574 h -26.4449 -26.4449 l -0.5347,5.6055 c -0.8297,8.70125 6.1085,21.85772 17.5732,33.32234 l 9.2647,9.26475 5.4401,-4.37179 c 2.9921,-2.40448 7.4235,-6.79781 9.8476,-9.76296 z m 80.0547,-0.28049 c 2.4041,-2.81087 6.2846,-8.90364 8.6233,-13.53948 3.6157,-7.16685 4.1197,-9.3128 3.3669,-14.33333 l -0.8854,-5.90454 h -26.3694 -26.3694 l -0.6043,5 c -0.7336,6.07026 0.7569,10.71087 6.5309,20.33334 5.0552,8.42452 8.3627,12.27842 15.6683,18.25673 l 5.2017,4.25675 5.2332,-4.47939 c 2.8782,-2.46367 7.2002,-6.7792 9.6042,-9.59008 z m -1282.07221,4.82243 c 10.84239,-10.84239 17.98816,-24.95092 16.70418,-32.98055 l -0.89856,-5.61923 h -26.3207 -26.32069 L 555.52872,779 c -0.69555,4.79253 -0.0823,7.14823 3.97553,15.27109 C 564.64472,804.5612 578.60749,820 582.77333,820 c 1.29067,0 5.97678,-3.63011 10.41356,-8.06689 z m 79.78202,0.004 c 10.81316,-10.81316 18.0047,-24.88288 16.8357,-32.93776 l -0.8224,-5.66667 h -26.32069 -26.32069 l -0.89856,5.61923 c -0.76706,4.79688 -0.20079,7.03104 3.86937,15.26644 C 644.41769,804.5504 658.34957,820 662.56,820 c 1.29067,0 5.97467,-3.628 10.40891,-8.06224 z m 638.88219,-0.21555 c 10.892,-10.89129 17.7948,-24.48851 16.6119,-32.72156 l -0.8141,-5.66667 h -26.3156 -26.3155 L 1274.1954,779 c -0.6956,4.79253 -0.082,7.14823 3.9755,15.27109 5.0806,10.17019 19.0873,25.72891 23.1624,25.72891 1.232,0 5.965,-3.725 10.5178,-8.27779 z m 638.6692,0.21089 c 10.8424,-10.84238 17.9881,-24.95092 16.7041,-32.98054 l -0.8985,-5.61858 h -26.3207 -26.3208 L 1912.862,779 c -0.6955,4.79253 -0.083,7.14823 3.9756,15.27109 5.1404,10.29011 19.1032,25.72891 23.2691,25.72891 1.2906,0 5.9768,-3.63011 10.4136,-8.06689 z m 79.3173,0.49046 c 8.2464,-8.18092 15.7016,-20.31688 18.1264,-29.50696 0.8344,-3.16254 1.848,-6.61254 2.2525,-7.66667 0.6255,-1.62927 -3.5482,-1.91595 -27.9034,-1.91595 h -28.639 l -0.8985,5.61923 c -0.7671,4.79688 -0.2008,7.03104 3.8693,15.26644 5.0954,10.30955 19.0351,25.781 23.2287,25.781 1.2799,0 5.7636,-3.4094 9.964,-7.57644 z M 369.93881,747 c 1.41687,-7.85171 5.65838,-20.98332 8.70918,-26.96339 l 2.78472,-5.45849 -7.71636,3.88039 c -11.08792,5.5759 -36.72142,16.59196 -48.35459,20.7805 -10.548,3.79784 -11.97532,4.95807 -12.00801,9.76099 l -0.0204,3 h 27.85162 27.85161 z m 80.06807,-1.71668 c 0.78633,-5.71737 0.39279,-7.80199 -2.64517,-14.01137 -4.49278,-9.18288 -12.08527,-18.84224 -19.30523,-24.56055 l -5.58468,-4.42315 -8.95785,9.18922 c -4.92683,5.05405 -10.64851,12.1892 -12.71486,15.85586 -4.00698,7.1103 -9.06242,22.62556 -7.7876,23.90038 0.42146,0.42146 13.20999,0.76629 28.41895,0.76629 h 27.65265 z m 79.87861,-0.0355 c 0.79028,-5.95741 0.37891,-7.78708 -3.49489,-15.54418 -5.74076,-11.49563 -21.25416,-27.74262 -24.71208,-25.88068 -5.05692,2.72293 -15.37417,14.32072 -20.67103,23.23666 -4.75393,8.00204 -5.52664,10.33696 -5.28194,15.96067 0.15764,3.62307 0.61929,7.12567 1.02589,7.78356 0.4066,0.65789 12.32656,1.19617 26.48881,1.19617 h 25.74954 z m 79.86735,0.41887 c 1.15184,-9.51952 -5.5012,-22.86917 -17.08623,-34.28436 -10.25948,-10.10908 -9.9248,-10.13253 -21.37069,1.49769 -4.41983,4.49102 -9.11329,11.16414 -11.90941,16.93271 -3.95476,8.15891 -4.50216,10.42647 -3.82726,15.85396 l 0.78755,6.33333 h 26.31987 26.31986 z m 80.02124,0 c 1.14395,-9.19944 -5.65957,-22.73735 -17.25311,-34.33088 -4.76801,-4.76807 -9.20245,-8.66917 -9.8543,-8.66917 -0.65186,0 -5.0863,3.9011 -9.85431,8.66912 -11.59353,11.59353 -18.39705,25.13144 -17.25311,34.33088 L 636.3468,752 h 26.31987 26.31986 l 0.78755,-6.33333 z m 80.00812,0 c 1.13732,-9.05289 -5.78579,-22.65791 -17.48121,-34.35333 -4.75567,-4.75567 -9.14844,-8.64667 -9.76172,-8.64667 -2.9478,0 -19.5791,19.0934 -23.59654,27.0898 -3.8768,7.71645 -4.28578,9.52931 -3.49489,15.49133 l 0.89571,6.7522 h 26.32149 26.32149 z m 78.82771,5.09184 c 0.42201,-0.68283 0.83388,-4.19723 0.91526,-7.80977 0.12254,-5.43672 -0.799,-8.18974 -5.34885,-15.98018 -5.31857,-9.10664 -15.14824,-20.27761 -20.24135,-23.00336 -3.62658,-1.94089 -19.11221,13.94936 -25.07002,25.72507 -3.97571,7.85803 -4.3662,9.57487 -3.54156,15.57079 l 0.92685,6.73894 h 25.79619 c 14.48705,0 26.13257,-0.54428 26.56348,-1.24149 z m 80.84797,-5.35459 c 0.67901,-5.0886 0.0744,-7.36153 -4.26364,-16.02869 -4.56733,-9.12527 -15.56956,-22.20099 -21.44892,-25.49125 -4.45113,-2.49098 -23.79321,19.47437 -27.77641,31.54358 -0.9261,2.80607 -1.20878,7.21484 -0.6861,10.70032 l 0.88895,5.92792 26.24745,-0.36124 26.24746,-0.36128 0.79121,-5.92941 z m 79.03502,3.59608 c 1.6442,-6.13521 0.7346,-11.95236 -3.0373,-19.42454 -4.1,-8.12203 -13.73099,-19.69112 -20.26633,-24.34471 l -3.911,-2.78488 -9.12644,9.12644 c -13.62835,13.62835 -19.49031,26.80964 -16.64478,37.42769 0.79847,2.97948 0.97963,3 26.49295,3 25.5133,0 25.6945,-0.0205 26.4929,-3 z m 80.2518,-3.05593 c 0.6478,-4.31924 0.2565,-7.76243 -1.3643,-12.00649 -2.9173,-7.63882 -12.0192,-19.99396 -19.3551,-26.27324 l -5.7365,-4.91022 -3.7406,2.66359 c -11.3176,8.05884 -24.4537,28.18973 -24.1236,36.9692 0.3819,10.15828 -1.1825,9.61309 27.5835,9.61309 h 25.8285 z m 79.9319,-0.68301 c 0.8239,-5.99047 0.4305,-7.72711 -3.5415,-15.63571 -5.7902,-11.52844 -21.3141,-27.67409 -24.8024,-25.79575 -5.1016,2.74708 -15.3754,14.34894 -20.5455,23.20135 -4.5141,7.72931 -5.4347,10.48773 -5.3124,15.91779 0.081,3.61254 0.4933,7.12694 0.9153,7.80977 0.4309,0.69721 12.0764,1.24149 26.5635,1.24149 h 25.7962 z m 79.8823,-0.0643 c 0.7984,-6.01868 0.4115,-7.74852 -3.3556,-15 -5.0168,-9.65705 -11.6584,-18.08247 -18.5681,-23.55504 l -4.9728,-3.93849 -5.4973,4.35016 c -6.7612,5.35034 -15.4928,16.71966 -19.671,25.61328 -2.9343,6.24596 -3.2221,10.87328 -1.0987,17.66666 0.3932,1.25818 6.8616,1.66667 26.391,1.66667 h 25.8701 z m 79.8818,0.46991 c 1.144,-9.19944 -5.6595,-22.73735 -17.2531,-34.33088 -4.768,-4.7681 -9.1606,-8.6692 -9.7614,-8.6692 -0.6008,0 -5.1557,4.02358 -10.1221,8.94132 -11.753,11.63792 -18.2098,24.53064 -17.0569,34.05868 L 1275.0135,752 h 26.3198 26.3199 l 0.7875,-6.33333 z m 80.0001,0 c 1.1439,-9.19944 -5.6596,-22.73735 -17.2532,-34.33088 -4.768,-4.7681 -9.2024,-8.6692 -9.8543,-8.6692 -0.6518,0 -5.2049,4.0198 -10.1181,8.93289 -11.6619,11.66188 -18.1121,24.61215 -16.968,34.06711 L 1355.0135,752 h 26.3198 26.3199 l 0.7876,-6.33333 z m 78.8357,5.09184 c 0.422,-0.68283 0.834,-4.19856 0.9154,-7.81275 0.1186,-5.26841 -0.8315,-8.32285 -4.7927,-15.40607 -4.4756,-8.00321 -19.5448,-24.8731 -22.218,-24.8731 -2.9408,0 -19.5764,18.97294 -23.5864,26.90037 -3.9171,7.74356 -4.3043,9.46905 -3.4949,15.57079 L 1435.0103,752 h 25.7494 c 14.4583,0 26.086,-0.5444 26.5168,-1.24149 z m 80.848,-5.35459 c 0.6791,-5.08839 0.076,-7.35783 -4.2553,-16 -4.7592,-9.49747 -15.562,-22.38517 -21.3684,-25.49265 -2.1356,-1.14296 -3.9092,0.0533 -11.5127,7.7654 -5.4677,5.54588 -10.7405,12.57157 -13.4624,17.93797 -3.9973,7.88107 -4.3745,9.5474 -3.5377,15.63117 l 0.9365,6.8097 26.2044,-0.36108 26.2044,-0.3611 z m 79.0662,4.48703 c 3.3582,-8.75155 -2.5171,-23.35751 -14.6804,-36.49544 -11.4046,-12.31822 -10.95,-12.2812 -21.6404,-1.76223 -5.722,5.63017 -10.7547,12.15853 -13.3586,17.32869 -4.268,8.47388 -4.8112,11.53891 -3.3446,18.87136 l 0.8333,4.16667 h 25.6907 c 22.1965,0 25.8008,-0.28685 26.5,-2.10905 z m 79.9689,-0.89095 c 1.6441,-6.13521 0.7345,-11.95236 -3.0373,-19.42455 -4.1,-8.12202 -13.731,-19.69112 -20.2664,-24.3447 l -3.911,-2.78488 -9.1264,9.12644 c -13.6284,13.62834 -19.4904,26.80964 -16.6448,37.42769 0.7984,2.97948 0.9796,3 26.493,3 25.5133,0 25.6945,-0.0205 26.4929,-3 z m 80.1896,-3.78195 c 0.8315,-6.04604 0.4472,-7.74492 -3.5416,-15.65656 -2.7227,-5.4004 -7.9781,-12.45129 -13.4245,-18.01093 l -8.9503,-9.13631 -3.7164,2.77218 c -6.3737,4.75433 -7.6404,5.97657 -12.5892,12.1469 -7.5584,9.42414 -12.2243,19.74416 -11.9755,26.48752 0.1187,3.20147 0.5428,6.35147 0.9436,7 0.4008,0.64854 12.337,1.17915 26.525,1.17915 h 25.7961 z m 79.8843,-0.0803 c 0.8094,-6.10267 0.4226,-7.82486 -3.495,-15.56002 -5.8501,-11.5509 -21.307,-27.59264 -24.7905,-25.7284 -5.9141,3.16516 -17.3197,16.61338 -21.8433,25.75536 -4.0715,8.22831 -4.7128,10.70524 -4.1584,16.0619 l 0.6556,6.33333 h 26.3606 26.3606 z m 79.8526,0.52884 c 1.1519,-9.51952 -5.5012,-22.86918 -17.0861,-34.28436 -10.2699,-10.11931 -9.8841,-10.14898 -21.3993,1.64529 -4.4588,4.56692 -9.2588,11.36997 -11.9698,16.96501 -3.8664,7.97964 -4.4112,10.26359 -3.7384,15.67406 l 0.7876,6.33333 H 1940 h 26.3199 z m 82.8795,2 c -0.5021,-2.38334 -2.1999,-7.63334 -3.7727,-11.66667 l -2.8596,-7.33333 -17.2074,-8.36782 -17.2075,-8.36782 -3.7837,4.36782 c -2.0811,2.4023 -5.864,8.56782 -8.4067,13.70115 -3.9761,8.02733 -4.5128,10.21955 -3.8355,15.66667 l 0.7876,6.33333 h 28.5992 28.5992 z m 40.7656,-1.65551 c -9.8644,-3.25496 -18.0759,-5.77756 -18.2477,-5.60579 -0.1718,0.17179 0.028,2.85086 0.4444,5.95348 l 0.7565,5.64115 17.4912,-0.0353 17.4911,-0.0353 -17.9355,-5.9181 z M 246.66667,737.81145 c 11.82586,-2.06805 40.06432,-8.88805 45.7466,-11.04844 1.95376,-0.74282 5.06233,-4.39821 7.65929,-9.00662 12.79484,-22.70492 31.98247,-38.44103 56.06979,-45.9838 7.99693,-2.50419 12.8778,-3.08866 25.85765,-3.09639 9.04467,-0.005 19.22608,0.78196 23.42125,1.81121 l 7.42124,1.82075 17.9121,-10.96843 C 498.99104,619.55531 565.3108,567.91815 701.33333,450.66467 855.12992,318.08969 913.53723,272.70876 985.95933,229.5178 994.73696,224.28301 1001.5518,220 1001.1035,220 c -1.62645,0 -35.80406,13.25671 -52.59633,20.40088 -160.24445,68.17511 -345.79964,191.12787 -599.8405,397.46691 -44.35158,36.02357 -118.03656,96.85476 -124,102.36912 -1.45595,1.3463 3.6523,0.78313 22,-2.42546 z m 1920.66663,-1.29653 c -10.4564,-9.22927 -24.6666,-20.68624 -24.6666,-19.88749 0,0.44668 1.1332,3.03824 2.5181,5.75902 1.3849,2.72079 3.2617,7.43632 4.1707,10.47896 l 1.6526,5.53207 8.8292,1.28689 c 13.1958,1.9233 13.2432,1.90323 7.496,-3.16945 z M 2124,731.23743 c 0,-2.47711 -7.9185,-13.53272 -14.1711,-19.78526 -15.3557,-15.35577 -37.0212,-22.85957 -58.3186,-20.19862 l -7.4247,0.92764 7.5079,8.90941 c 4.1292,4.90017 8.314,9.39149 9.2994,9.98071 5.6895,3.40172 56.5911,20.69001 61.4404,20.86764 0.9167,0.0336 1.6667,-0.28211 1.6667,-0.70152 z M 345.33333,706.9294 c 17.68008,-7.83892 32.27779,-15.09605 31.64286,-15.731 -1.28314,-1.28312 -18.76967,3.71184 -26.30952,7.5152 -8.32355,4.19869 -20.40168,14.14463 -14.66667,12.07751 1.83333,-0.6608 6.03333,-2.39858 9.33333,-3.86171 z m 531.42088,-13.08612 c 1.56135,-1.1998 0.96251,-1.65145 -3.07424,-2.31865 -6.3912,-1.05635 -15.6191,-1.05908 -21.98656,-0.007 l -4.97325,0.82211 6.80004,8.13812 c 3.74003,4.47596 7.09119,8.89681 7.44704,9.82413 0.37903,0.98775 3.38059,-1.76288 7.24745,-6.64156 3.63026,-4.58017 7.47304,-8.99811 8.53952,-9.81764 z m 77.45339,-2.04371 c -3.80097,-1.14665 -18.1506,-1.3443 -23.26956,-0.32052 l -4.06196,0.8124 7.55195,9.52254 7.55194,9.52253 7.55095,-9.33493 c 7.07603,-8.7478 7.37017,-9.38946 4.67668,-10.20202 z m 79.9051,0 c -1.5287,-0.4769 -6.9794,-0.86709 -12.1127,-0.86709 -16.1547,0 -16.3033,0.21779 -7.5862,11.11885 l 7.5044,9.38467 7.4869,-9.38467 c 6.9264,-8.68206 7.2789,-9.44958 4.7076,-10.25176 z m 638.6666,0 c -1.5286,-0.4769 -6.9793,-0.86709 -12.1126,-0.86709 -16.1352,0 -16.2902,0.22765 -7.5368,11.06752 l 7.5368,9.33333 7.446,-9.33333 c 6.8906,-8.63725 7.2388,-9.398 4.6666,-10.20043 z m 77.4822,7.37672 5.7612,-6.82369 -5.0114,-0.82829 c -6.2364,-1.03076 -18.6838,-0.87964 -22.673,0.27526 -2.8516,0.82558 -2.6282,1.31896 4.6666,10.30455 7.4018,9.11725 7.7268,9.34344 9.5786,6.66667 1.0542,-1.52394 4.5093,-5.84146 7.678,-9.5945 z m -1278.49619,1.3177 6.73118,-8.1727 -4.9149,-0.81264 c -6.08915,-1.00678 -18.24603,-0.82197 -23.58159,0.35851 -3.19171,0.70616 -3.59585,1.14579 -2,2.17559 1.1,0.70981 4.93031,4.78028 8.51179,9.04546 3.58149,4.26518 6.96416,7.26518 7.51706,6.66667 0.5529,-0.59852 4.03431,-4.76592 7.73646,-9.26089 z m 79.23958,0.66421 7.46147,-8.84179 -4.89984,-0.8102 c -6.28119,-1.0386 -15.54211,-1.03465 -21.85713,0.009 l -4.95728,0.81952 7.28461,8.1658 c 4.00655,4.4912 7.28732,8.66581 7.29063,9.27692 0.012,2.16102 2.29978,0.12306 9.67754,-8.61958 z m 79.91622,0.23304 7.58776,-9.06793 -4.9211,-0.81364 c -2.70661,-0.44751 -7.6211,-0.81366 -10.9211,-0.81366 -3.3,0 -8.2145,0.36615 -10.92111,0.81366 l -4.92109,0.81364 7.58776,9.06793 c 4.17328,4.98737 7.88777,9.06795 8.25444,9.06795 0.36666,0 4.08116,-4.08058 8.25444,-9.06795 z M 705.7968,707 c 1.56597,-2.01667 5.10585,-6.13759 7.86639,-9.1576 l 5.01914,-5.49095 -5.00784,-0.82772 c -6.35089,-1.0497 -15.6074,-1.0593 -21.87581,-0.0227 l -4.86799,0.80502 7.53466,9.13391 c 4.14405,5.02365 7.7483,9.15479 8.00942,9.18029 0.26112,0.0255 1.75604,-1.6036 3.32203,-3.62026 z m 80,0 c 1.56597,-2.01667 5.10585,-6.13759 7.86639,-9.1576 l 5.01914,-5.49095 -5.00784,-0.82772 c -6.35476,-1.05034 -15.60828,-1.05916 -21.88728,-0.0208 l -4.87945,0.80688 7.49831,9.17844 c 4.12408,5.04815 7.73348,9.17844 8.02089,9.17844 0.28743,0 1.80385,-1.65 3.36984,-3.66666 z m 323.8803,-5.50145 7.5424,-9.16811 -4.9431,-0.81721 c -6.1756,-1.02098 -18.618,-0.86367 -22.6493,0.28634 -2.9107,0.83036 -2.7229,1.2484 4.4343,9.8671 4.1107,4.95 7.6088,9 7.7737,9 0.1648,0 3.6938,-4.12566 7.842,-9.16812 z m 80.0798,-0.3333 7.463,-8.83474 -4.9433,-0.81724 c -6.3212,-1.04507 -15.571,-1.04411 -21.9005,0.003 l -4.9573,0.81952 7.2846,8.1658 c 4.0065,4.4912 7.2873,8.66582 7.2906,9.27692 0.012,2.20223 2.4273,0.0713 9.7629,-8.61252 z m 79.9147,-0.007 7.4614,-8.84179 -4.8998,-0.8102 c -6.2812,-1.0386 -15.5421,-1.03465 -21.8571,0.009 l -4.9573,0.81952 7.2846,8.1658 c 4.0065,4.4912 7.2873,8.66582 7.2906,9.27692 0.012,2.16103 2.2998,0.12307 9.6776,-8.61957 z m 79.9161,0.23304 7.5879,-9.06794 -4.9212,-0.81364 c -6.2709,-1.03684 -15.5492,-1.04052 -21.7891,-0.008 l -4.8679,0.80503 7.5346,9.13391 c 4.1441,5.02365 7.8347,9.1081 8.2013,9.07656 0.3667,-0.0316 4.0812,-4.13792 8.2544,-9.1253 z m 76.8151,3.34652 c 2.4216,-3.21556 5.8744,-7.31804 7.6731,-9.11663 l 3.2701,-3.27016 -5.0063,-0.82748 c -6.365,-1.05205 -15.61,-1.05836 -21.9205,-0.0149 l -4.914,0.8125 7.5807,9.14084 c 4.1694,5.02747 7.8808,9.13668 8.2474,9.13159 0.3667,-0.005 2.648,-2.64015 5.0695,-5.85569 z m 86.222,-7.59931 4.2648,-4.86155 -4.7781,-0.79044 c -6.1432,-1.01628 -15.4552,-1.00921 -21.6576,0.0164 l -4.8795,0.80688 7.5461,9.24967 7.5462,9.24965 3.8466,-4.40454 c 2.1156,-2.42251 5.7659,-6.59226 8.1115,-9.26611 z m 79.4059,0.525 4.6974,-5.41276 -4.6974,-0.77733 c -6.1724,-1.02144 -17.3235,-1.01482 -22.4643,0.0133 l -4.1001,0.82004 7.539,9.33103 7.5392,9.33101 3.3944,-3.94629 c 1.867,-2.17046 5.5083,-6.38203 8.0918,-9.35904 z m 237.068,2.83053 6.7312,-8.17269 -4.915,-0.81264 c -6.0892,-1.00679 -18.246,-0.82197 -23.5816,0.35851 -3.216,0.71154 -3.6018,1.13793 -1.9689,2.17558 1.1171,0.70982 4.9617,4.766 8.5436,9.01372 3.5819,4.24772 6.9505,7.24772 7.4859,6.66667 0.5354,-0.58105 4.0026,-4.73417 7.7048,-9.22915 z m 79.3249,0.67127 7.4631,-8.83475 -4.9434,-0.81724 c -6.3213,-1.04506 -15.571,-1.0441 -21.9006,0.003 l -4.9572,0.81952 7.2845,8.1658 c 4.0067,4.4912 7.2873,8.66581 7.2907,9.27692 0.013,2.20223 2.4273,0.0713 9.7629,-8.61252 z m 75.5561,5.16808 c 2.1682,-2.38333 3.9598,-4.64484 3.9812,-5.02557 C 1988.0584,699.58188 1971.8835,692 1968.1041,692 h -4.2244 l 7.7268,9.22959 c 4.2498,5.07628 7.8852,9.27628 8.079,9.33333 0.1936,0.0571 2.1261,-1.84625 4.2942,-4.22959 z M 514,672.3886 c 9.56431,-3.20764 12.5958,-3.5756 29.33333,-3.56047 16.81763,0.0152 19.70871,0.37596 29.18643,3.64179 l 10.51977,3.62489 10.81356,-3.70022 c 9.73151,-3.32998 12.61475,-3.69962 28.81358,-3.69398 16.07025,0.005 19.17928,0.39932 29,3.67255 l 11,3.66628 11,-3.66628 c 9.82072,-3.27323 12.92974,-3.66695 29,-3.67255 16.21774,-0.005 19.07561,0.36175 28.8633,3.71054 l 10.86331,3.7168 11.13669,-3.71054 c 9.97442,-3.32328 13.01527,-3.71118 29.1367,-3.7168 16.21774,-0.005 19.07561,0.36175 28.8633,3.71054 l 10.86331,3.7168 11.13669,-3.73064 c 10.08372,-3.37791 12.8386,-3.72258 29.1367,-3.64532 15.77092,0.0748 19.31634,0.52293 28.62964,3.61914 l 10.62962,3.53383 11.37038,-3.61745 c 10.12661,-3.22176 13.33928,-3.60831 29.37036,-3.53383 15.77372,0.0733 19.31469,0.52069 28.62964,3.61745 l 10.62962,3.53383 11.37038,-3.61915 c 10.13339,-3.22542 13.32849,-3.60954 29.37039,-3.53086 15.9609,0.0783 19.1823,0.4965 28.4368,3.69198 l 10.4368,3.6037 10.8965,-3.61667 c 9.781,-3.24644 12.8075,-3.61527 29.5632,-3.6028 16.7919,0.012 19.7157,0.37548 29.1112,3.61423 l 10.4446,3.60034 10.8888,-3.61422 c 9.7723,-3.24366 12.8027,-3.6128 29.5554,-3.60035 16.8222,0.012 19.7061,0.37205 29.1864,3.63876 l 10.5198,3.62489 10.8136,-3.70022 c 9.7315,-3.32998 12.6147,-3.69962 28.8135,-3.69398 16.1215,0.005 19.1623,0.39352 29.1367,3.7168 l 11.1367,3.71054 10.8633,-3.7168 c 9.7877,-3.34879 12.6456,-3.71619 28.8633,-3.71054 16.0703,0.005 19.1794,0.39932 29,3.67255 l 11,3.66628 11,-3.66628 c 9.8267,-3.27523 12.9199,-3.66628 29,-3.66628 16.0802,0 19.1734,0.39105 29,3.66628 l 11,3.66628 11,-3.66628 c 9.8207,-3.27323 12.9298,-3.66695 29,-3.67255 16.1988,-0.005 19.082,0.364 28.8136,3.69398 l 10.8136,3.70022 10.5198,-3.59573 c 9.4133,-3.21756 12.4829,-3.60132 29.1864,-3.64895 16.7554,-0.0477 19.7549,0.31066 29.2962,3.5008 l 10.6298,3.55403 11.3702,-3.61745 c 10.1267,-3.22176 13.3394,-3.60831 29.3704,-3.53383 15.7814,0.0733 19.3126,0.51995 28.6484,3.62343 l 10.6486,3.53981 10.6848,-3.52075 c 9.4753,-3.12218 12.798,-3.52328 29.3516,-3.54313 16.8516,-0.0203 19.6801,0.32769 29.0892,3.57795 l 10.4225,3.60033 11.5775,-3.68232 c 10.409,-3.31072 13.394,-3.66901 29.5774,-3.55029 15.7942,0.11586 19.28,0.56798 28.4446,3.68953 l 10.4446,3.55749 10.8887,-3.6214 c 9.8133,-3.26372 12.7324,-3.61644 29.5555,-3.57118 16.6474,0.0448 19.7888,0.43402 29.0412,3.59853 5.706,1.95157 10.956,3.54832 11.6666,3.54832 3.2795,0 0.5522,-2.83212 -7.7078,-8.00404 -13.499,-8.45217 -50.2564,-34.41892 -74.3334,-52.51161 C 1812.9865,580.65683 1769.724,544.84832 1666.6667,456.01344 1635.5,429.14795 1598.9,397.88505 1585.3333,386.54035 1425.8003,253.13581 1321.7904,194.46932 1226.3859,184.07701 1136.1817,174.25117 1037.6787,212.87423 909.33333,308.39343 862.25585,343.43017 820.99557,377.40877 722,462.66591 591.02777,575.46203 530.67553,623.39819 466.69151,665.45057 c -3.14119,2.06448 -2.99016,2.13874 6.06098,2.97995 5.10534,0.47449 13.47458,2.28808 18.59831,4.03019 5.12372,1.74212 9.91587,3.24348 10.6492,3.33636 0.73333,0.0929 6.13333,-1.44092 12,-3.40847 z m 1516.6667,0.19615 c 15.9492,-5.33631 39.2532,-5.78939 56,-1.08879 4.8806,1.36995 -71.2332,-60.53445 -144.6667,-117.65932 -210.648,-163.86579 -375.1916,-266.58453 -516.4123,-322.37795 -33.2437,-13.1339 -34.1962,-13.2619 -15.5877,-2.09452 35.1113,21.07103 77.4599,50.50086 118.8991,82.6281 39.909,30.94097 72.4248,58.17901 183.9028,154.05297 120.8782,103.95853 184.8368,153.59095 248.715,193.00516 13.6518,8.4234 13.9595,8.53511 25.8164,9.37212 7.324,0.51701 15.6368,2.11971 21.3334,4.11304 5.1333,1.79627 9.9333,3.29499 10.6666,3.33047 0.7334,0.0355 5.8334,-1.44108 11.3334,-3.28128 z m 415.1212,122.82054 c 0.4069,-1.06042 6.6936,-10.83021 13.9705,-21.71064 l 13.2305,-19.7826 -13.1404,-19.28936 c -7.2273,-10.60914 -13.1498,-19.76272 -13.1612,-20.34126 -0.013,-0.57856 5.1912,-0.87856 11.5612,-0.66667 l 11.5818,0.38524 8.4649,13.33333 c 4.6559,7.33334 8.894,13.46282 9.4183,13.62108 0.5242,0.15826 4.2532,-5.12722 8.2865,-11.74552 4.0333,-6.61829 8.3099,-12.92433 9.5036,-14.01342 1.6155,-1.47406 4.7871,-1.8799 12.4084,-1.58783 l 10.2383,0.39236 -13.4427,19.2826 c -7.3935,10.60543 -13.2035,19.90543 -12.9111,20.66667 0.2924,0.76124 6.3079,10.22156 13.3676,21.02293 7.0598,10.80139 12.8359,20.25139 12.8359,21 0,0.81244 -4.2965,1.36113 -10.6583,1.36113 h -10.6584 l -4.0084,-5.53358 c -2.2046,-3.04347 -6.5585,-9.93611 -9.675,-15.31698 -3.1166,-5.38086 -5.9674,-9.79076 -6.3351,-9.79976 -0.3677,-0.009 -4.5075,6.03052 -9.1995,13.42115 -4.6918,7.39061 -9.3838,14.29061 -10.4266,15.33333 -2.7491,2.74904 -22.3067,2.7194 -21.2508,-0.0321 z M 2033.3333,130 V 53.333333 h 8 8 V 130 206.66667 h -8 -8 z m 347.567,75.66667 c -0.3248,-0.55 -0.5103,-34.9 -0.4122,-76.33334 L 2380.6667,54 2389,53.603044 l 8.3333,-0.396957 v 76.730293 76.73029 h -7.9213 c -4.3567,0 -8.1871,-0.45 -8.5117,-1 z M 244.92783,203.15005 C 244.41752,202.63975 244,168.72223 244,127.77778 V 53.333333 h 17.33333 17.33334 v 4.411827 c 0,6.592707 -2.343,8.747548 -10,9.196921 L 262,67.333333 l -0.34679,60.999997 -0.34678,61 h 6.58488 c 8.25336,0 11.07308,2.45848 10.51262,9.16584 L 278,203.33333 l -16.07217,0.37228 c -8.8397,0.20475 -16.4897,-0.0452 -17,-0.55556 z m 193.08489,-7.70545 c -6.48173,-11.59043 -12.07484,-27.35787 -14.76177,-41.61473 -3.06888,-16.28343 -2.05722,-47.31601 2.03741,-62.496537 2.96272,-10.98406 14.53501,-36.909417 17.21443,-38.565385 1.9724,-1.219005 11.93226,4.401835 12.83396,7.242827 0.38452,1.211492 -1.346,6.654677 -3.8456,12.095969 C 448.99155,77.548035 445.69923,86.5 444.17489,92 c -2.75386,9.93627 -5.56621,33.43883 -4.7789,39.93687 0.22634,1.86805 0.75892,7.32328 1.18352,12.12272 1.01806,11.50773 5.07313,25.82554 10.96433,38.71342 2.62935,5.75206 4.43628,11.35563 4.01541,12.45238 C 454.89443,196.95791 445.15611,204 443.42508,204 c -0.34535,0 -2.78091,-3.84993 -5.41236,-8.5554 z m 115.64971,4.96197 c -6.7357,-3.97785 -7.17588,-6.83344 -2.48454,-16.11756 16.0665,-31.79541 16.46662,-77.33283 0.97959,-111.488738 C 549.87087,67.75726 548,62.535779 548,61.196981 548,58.756955 556.5152,52 559.59016,52 c 2.78699,0 14.93713,26.566043 18.59916,40.666667 2.98543,11.495373 3.47081,16.182163 3.5212,34.000003 0.0629,22.25937 -1.37424,31.40284 -7.75753,49.35409 -3.39298,9.54175 -11.60935,25.86412 -13.65636,27.12925 -0.53447,0.33032 -3.51986,-0.90422 -6.6342,-2.74344 z m 37.93206,2.74348 c -1.7266,-1.72661 -0.94116,-9.6129 1.16742,-11.72148 1.33909,-1.33909 4.47164,-2.09524 8.68012,-2.09524 h 6.58488 l -0.34679,-61 -0.34679,-60.999997 -6.9902,-0.402673 c -7.75896,-0.446957 -10.1745,-2.838064 -9.42533,-9.329931 L 591.33333,54 l 17.01112,-0.373252 17.01112,-0.373252 -0.34445,75.039914 -0.34445,75.03992 -16.07218,0.37228 c -8.83969,0.20475 -16.48969,-0.0452 -17,-0.55556 z m 1630.73271,-1.51381 c -3.5327,-4.00549 -11.2172,-20.56347 -14.7663,-31.81689 -7.4048,-23.47942 -8.0673,-53.5547 -1.7224,-78.184279 3.4352,-13.334076 14.4794,-37.995756 17.5419,-39.170974 2.6272,-1.008141 12.6196,5.879235 12.6196,8.698187 0,1.354191 -2.0572,6.914589 -4.5715,12.356443 -7.1881,15.557949 -10.2069,28.831483 -11.0261,48.481273 -1.0337,24.80111 1.6045,37.33361 14.3709,68.26653 2.0015,4.8494 0.6979,7.12786 -6.5048,11.36971 -3.7044,2.18165 -4.0172,2.18165 -5.9413,0 z m 111.0711,-1.74249 c -6.575,-4.76287 -6.5879,-4.32343 0.6376,-21.7311 7.743,-18.65452 10.3722,-33.94334 9.5437,-55.49598 -0.7887,-20.51465 -3.7429,-33.742977 -10.9741,-49.138393 C 2330.0724,68.135497 2328,62.593024 2328,61.211671 c 0,-2.860303 9.9556,-9.76984 12.6095,-8.751442 3.1312,1.201535 14.0118,25.414131 17.4689,38.873104 6.4275,25.023847 5.7887,54.664467 -1.6956,78.666667 -3.3791,10.8368 -14.4959,34 -16.3177,34 -0.5491,0 -3.5491,-1.84781 -6.6668,-4.10625 z M 177.97212,177.68617 c -17.94717,-6.4419 -27.30545,-20.75929 -27.30545,-41.77506 0,-25.17393 15.90157,-41.767677 40,-41.741146 11.35241,0.01253 17.0671,2.003057 24.50885,8.537006 6.98276,6.13094 10.43703,13.61643 11.20216,24.2754 C 227.34271,140.42605 228.27681,140 197.83675,140 H 172 l 0.0293,3 c 0.0528,5.40691 4.99986,14.18731 9.55987,16.96747 6.46665,3.94262 17.92184,3.66757 26.41085,-0.63414 C 211.61796,157.5 215.46748,156 216.55453,156 c 1.08707,0 3.61967,2.15433 5.62802,4.78741 4.64646,6.09183 3.68881,7.78388 -7.72866,13.65551 -11.09765,5.70716 -25.94093,7.02673 -36.48172,3.24325 z M 208,124.53484 c 0,-4.02701 -4.04711,-10.65438 -7.89393,-12.92676 -4.78387,-2.82589 -12.34146,-2.92087 -18.01952,-0.22645 C 178.12619,113.26094 172,121.64249 172,125.18154 c 0,1.01794 5.66237,1.48513 18,1.48513 15.60581,0 18,-0.28356 18,-2.13183 z M 54.666667,120 V 61.333333 l 23,0.02083 c 33.512983,0.03035 46.330663,4.00762 53.757623,16.680753 9.49938,16.209474 3.63732,37.688424 -12.85696,47.108694 -3.80436,2.17276 -6.16974,4.27807 -5.3652,4.7753 0.79141,0.48912 8.67558,11.50746 17.52037,24.4852 L 146.80393,178 l -11.42694,0.38561 c -6.28482,0.21208 -12.45516,-0.18981 -13.71186,-0.8931 -1.25671,-0.70328 -8.59547,-10.7768 -16.30836,-22.3856 L 91.333333,134 l -7,-0.40301 -7,-0.40302 v 22.73635 22.73635 H 66 54.666667 Z m 48.955903,-6.22662 c 12.25688,-5.81627 13.24412,-25.809252 1.57248,-31.844889 -2.33828,-1.20917 -9.188345,-2.446752 -15.977431,-2.886598 L 77.333333,78.271944 V 97.135972 116 h 10.798495 c 7.325041,0 12.307812,-0.71622 15.490742,-2.22662 z m 233.71076,51.09039 v -13.8029 l -8.85873,-1.46794 c -17.14244,-2.8406 -29.89783,-11.7958 -36.327,-25.50416 -3.34259,-7.12711 -3.49881,-8.52172 -3.93079,-35.08877 l -0.44984,-27.666667 h 9.2432 c 13.529,0 13.6565,0.233751 13.6565,25.03936 0,31.224267 2.84556,39.166027 15.58916,43.508207 11.97305,4.07963 11.0775,6.76479 11.0775,-33.214233 V 61.333333 H 348.66667 360 v 35.333334 c 0,39.484333 -0.75441,36.824043 9.62527,33.941323 13.78137,-3.82746 17.0414,-12.13401 17.0414,-43.421421 0,-26.109609 -0.13432,-25.853236 13.54509,-25.853236 h 9.3546 l -0.44984,27.699976 -0.44985,27.699981 -4.37636,8.88436 c -2.40699,4.8864 -6.30699,10.51731 -8.66667,12.51314 -6.15295,5.20421 -17.10196,9.90488 -27.03331,11.60605 L 360,151.20831 v 13.72917 13.72919 H 348.66667 337.33333 Z M 460,177.98119 c 0,-0.37703 6.26039,-10.06476 13.91199,-21.52832 l 13.91197,-20.84282 -12.55609,-18.30389 C 468.362,107.23902 462.33741,98.026761 461.87989,96.834469 c -0.72488,-1.889002 0.52555,-2.167802 9.72262,-2.167802 6.46602,0 11.3452,0.645612 12.59574,1.666666 1.1227,0.916667 5.49102,7.216667 9.70738,13.999997 4.21636,6.78334 8.06248,12.31587 8.5469,12.29452 0.48444,-0.0213 3.8808,-4.97109 7.54747,-10.99943 9.93385,-16.332181 10.74819,-16.961753 21.9394,-16.961753 5.93297,0 9.39393,0.5394 9.39393,1.464073 0,0.80524 -5.50786,9.35524 -12.2397,19 -6.73183,9.64476 -12.25119,18.43593 -12.26524,19.53593 -0.014,1.1 5.79382,10.88396 12.90637,21.74214 7.11255,10.85818 12.93191,20.30818 12.93191,21 0,0.69182 -4.69542,1.25786 -10.43426,1.25786 -11.57645,0 -12.62108,-0.62456 -18.95608,-11.33334 -1.73528,-2.93333 -5.17174,-8.51612 -7.6366,-12.4062 l -4.48156,-7.07286 -9.29594,14.35853 c -5.11276,7.89719 -10.02335,14.82079 -10.91242,15.38577 C 479.16953,178.72992 460,179.08001 460,177.98119 Z M 2117.3333,164.89713 V 151.1276 l -9,-1.61833 c -12.2886,-2.2097 -21.7792,-7.08884 -28.6034,-14.70515 -9.5071,-10.61049 -10.6895,-15.42638 -11.41,-46.470787 l -0.6267,-27 h 9.2319 c 14.6958,0 14.2898,-0.795892 15.0749,29.556654 0.5855,22.637173 0.9915,26.329223 3.3333,30.313303 2.9486,5.01609 9.8467,9.17342 17.2019,10.36699 l 4.7981,0.77863 V 96.841123 61.333333 H 2128.6667 2140 V 96.666667 132 l 3.6667,-0.0293 c 4.697,-0.0375 13.6206,-4.12597 16.7934,-7.69415 4.976,-5.59619 6.0872,-12.05527 6.148,-35.736583 0.07,-27.352646 0,-27.206654 13.9448,-27.206654 h 9.0096 l -0.448,28.333334 c -0.4408,27.883243 -0.5069,28.453673 -4.168,35.908803 -6.3076,12.84449 -18.5337,21.1047 -35.5588,24.02418 L 2140,151.20947 v 13.7286 13.7286 h -11.3333 -11.3334 z M 2242.1028,175 c 19.3509,-29.44801 25.0083,-38.40584 25.0083,-39.59765 0,-0.78159 -5.7846,-9.88228 -12.8547,-20.22373 -7.07,-10.34146 -12.47,-19.187249 -12,-19.657305 0.4701,-0.470056 5.5819,-0.854648 11.3595,-0.854648 h 10.5048 l 9.5529,14.826923 c 5.2541,8.1548 9.816,14.03767 10.1375,13.07304 1.065,-3.19519 15.0994,-24.536285 17.2516,-26.233297 2.1345,-1.683104 21.604,-2.441262 21.604,-0.841278 0,0.453962 -6.024,9.446095 -13.3867,19.982515 l -13.3868,19.15712 14.1547,21.68416 14.1545,21.68415 -10.8971,0.38935 c -6.9386,0.2479 -11.5833,-0.18016 -12.7861,-1.17844 -1.0391,-0.86228 -4.9832,-6.73748 -8.7648,-13.05602 -3.7816,-6.31852 -7.602,-12.56988 -8.4899,-13.89189 -1.4308,-2.1306 -2.7648,-0.65383 -11.7433,13 l -10.1291,15.40367 h -10.8494 -10.8494 z m 172.5639,-73.36277 c 0,-4.546761 1.0969,-6.114277 11.4294,-16.333334 12.064,-11.931409 15.2372,-16.459055 15.2372,-21.741089 0,-6.914088 -7.081,-7.865476 -11.2448,-1.510815 -1.6533,2.523323 -3.298,3.276625 -7.1193,3.260924 -7.5307,-0.03095 -8.9217,-1.396845 -7.0861,-6.958425 2.8805,-8.728154 10.0997,-13.02466 21.8704,-13.016174 11.801,0.0085 19.5798,7.157688 19.5798,17.995016 0,6.549618 -3.0277,11.886056 -12.1005,21.32735 l -7.6936,8.005984 8.6204,-0.44961 c 10.5773,-0.551681 12.5071,0.77721 12.5071,8.612873 v 5.83674 h -22 -22 z"
       id="path60" />
  </g>
</svg>
