<?xml version="1.0" encoding="UTF-8" standalone="no"?>
<svg
   xmlns:dc="http://purl.org/dc/elements/1.1/"
   xmlns:cc="http://creativecommons.org/ns#"
   xmlns:rdf="http://www.w3.org/1999/02/22-rdf-syntax-ns#"
   xmlns:svg="http://www.w3.org/2000/svg"
   xmlns="http://www.w3.org/2000/svg"
   xmlns:sodipodi="http://sodipodi.sourceforge.net/DTD/sodipodi-0.dtd"
   xmlns:inkscape="http://www.inkscape.org/namespaces/inkscape"
   version="1.1"
   id="svg22"
   width="1365.3333"
   height="1189.3333"
   viewBox="0 0 1365.3333 1189.3333"
   sodipodi:docname="euantum-branches.svg"
   inkscape:version="1.0.2-2 (e86c870879, 2021-01-15)">
  <metadata
     id="metadata28">
    <rdf:RDF>
      <cc:Work
         rdf:about="">
        <dc:format>image/svg+xml</dc:format>
        <dc:type
           rdf:resource="http://purl.org/dc/dcmitype/StillImage" />
        <dc:title></dc:title>
      </cc:Work>
    </rdf:RDF>
  </metadata>
  <defs
     id="defs26" />
  <sodipodi:namedview
     pagecolor="#ffffff"
     bordercolor="#666666"
     borderopacity="1"
     objecttolerance="10"
     gridtolerance="10"
     guidetolerance="10"
     inkscape:pageopacity="0"
     inkscape:pageshadow="2"
     inkscape:window-width="1563"
     inkscape:window-height="968"
     id="namedview24"
     showgrid="false"
     inkscape:zoom="0.7419434"
     inkscape:cx="682.66663"
     inkscape:cy="432.92922"
     inkscape:window-x="559"
     inkscape:window-y="16"
     inkscape:window-maximized="0"
     inkscape:current-layer="g30" />
  <g
     inkscape:groupmode="layer"
     inkscape:label="Image"
     id="g30">
    <path
       style="fill:#e6e6e6;stroke-width:1.33333"
       d="m 1103.9275,1065.4577 v -41.2089 l -13,-0.7618 c -52.9867,-3.1054 -74.3127,-5.5113 -102.47696,-11.5614 -83.1359,-17.85875 -154.86826,-54.54569 -230.43275,-117.85307 -22.19525,-18.59501 -43.11723,-37.7929 -89.42353,-82.05454 -62.61837,-59.85344 -79.30805,-74.80138 -111.33333,-99.71461 -87.25964,-67.88137 -178.65692,-101.62813 -285,-105.23098 L 247.9276,606.248 v 41.54265 41.54266 h -94 -93.999989 v -93.99999 -94 h 93.999989 94 v 41.25464 c 0,22.69005 0.45,41.51825 1,41.84044 1.88293,1.103 51.05197,-1.64595 68.03428,-3.80367 83.62277,-10.62489 154.80962,-39.08373 223.88535,-89.50413 37.68892,-27.51024 62.24514,-49.21035 139.08036,-122.90404 53.96583,-51.75934 84.14276,-77.96353 118.88714,-103.23582 45.1449,-32.83741 93.43351,-57.77813 142.33761,-73.51639 44.2132,-14.22859 100.26576,-23.42162 142.99946,-23.45295 8.5567,-0.007 16.5067,-0.37559 17.6667,-0.82072 1.8602,-0.71383 2.109,-5.66947 2.109,-42 V 83.999998 h 94 94 V 178 271.99999 h -94 -94 v -41.5372 -41.5372 l -25,0.79447 c -98.56136,3.13217 -186.49216,33.61776 -267.48157,92.73581 -35.83626,26.1586 -64.67018,51.47801 -130.85167,114.90244 -22.73334,21.78626 -48.53334,46.09236 -57.33334,54.0135 -51.26159,46.14219 -91.86122,75.42283 -139.33333,100.48789 -8.43333,4.45276 -14.7921,8.10591 -14.13059,8.11811 2.98226,0.0549 37.24894,-10.05109 58.62346,-17.28949 38.44964,-13.02081 68.46221,-25.70145 125.50713,-53.02817 77.86017,-37.29802 113.05193,-52.83368 148.46929,-65.54288 84.17664,-30.20601 166.31786,-44.73952 269.19732,-47.62992 l 32.3333,-0.9084 v -41.79848 -41.79849 l 93.6667,0.34235 93.6667,0.34233 0.3422,94.33333 0.3423,94.33333 h -94.0089 -94.009 v -41.37517 c 0,-37.75044 -0.199,-41.45157 -2.2721,-42.24709 -6.0401,-2.31782 -100.0847,3.52726 -134.39446,8.35293 -98.79893,13.89604 -160.72633,34.33256 -284.66668,93.94222 -98.38439,47.3184 -145.01264,65.30169 -214.46792,82.71463 -3.19069,0.79992 -5.47269,1.78297 -5.0711,2.18456 0.40157,0.40157 144.76212,0.28176 320.80124,-0.26628 l 320.07102,-0.99642 v -41.15469 -41.15469 h 94 94 v 94 93.99999 h -94 -94 v -41.33333 -41.33333 l -320.33325,0.10453 -320.33332,0.10454 19.33333,5.07069 c 59.65664,15.64656 104.29939,33.22433 196.83214,77.50133 26.30899,12.58887 58.03452,27.39188 70.50119,32.89557 104.92276,46.32059 198.79365,66.80653 322.99991,70.48996 l 31,0.91933 v -42.21858 -42.2186 l 93.6667,0.34235 93.6667,0.34233 0.3422,94.33333 0.3423,94.33333 h -93.9899 -93.99 l -0.3523,-41.66666 -0.3523,-41.66679 -14,-0.29321 C 983.75554,812.83036 899.94734,799.61903 818.62777,772.37809 778.02847,758.77787 746.10332,745.1739 674.59426,711.00237 600.44715,675.57022 565.96355,660.80582 525.92759,647.34966 c -15.8568,-5.32949 -54.94557,-16.70072 -57.25133,-16.65485 -0.77842,0.0155 6.98467,4.40065 17.25133,9.74483 42.24463,21.98985 80.8522,49.40322 127.33333,90.41329 20.11583,17.74808 35.05699,31.73914 90.61222,84.85019 77.65506,74.23862 122.41205,108.07248 182.05444,137.62335 37.02766,18.346 71.27136,30.24918 108.66666,37.77282 33.32066,6.70387 65.14776,10.23111 92.33326,10.23291 h 17 v -41.33333 -41.33333 h 94 94 v 93.99996 94 h -94 -94 z m 168,-52.7911 v -75.33329 h -74.6666 -74.6667 V 1012.6666 1088 h 74.6667 74.6666 z m -109.758,62.4642 c -0.4997,-0.4997 -0.9086,-28.7086 -0.9086,-62.6864 v -61.77776 h 40 40 v 9.33333 9.33334 h -28 -28 V 986.66664 1004 h 22 22 v 8.6666 8.6667 h -22 -22 v 17.3063 17.3063 l 27.6666,0.3604 27.6667,0.3603 v 9.3334 9.3333 l -38.758,0.3531 c -21.3169,0.1942 -39.1669,-0.056 -39.6667,-0.5556 z m 109.758,-271.13082 v -74.66667 h -74.6666 -74.6667 v 74.66667 74.66666 h 74.6667 74.6666 z m -126.3465,0.33333 0.3465,-62.33333 23.3334,-0.39248 c 29.5861,-0.49765 41.8109,1.05775 54,6.87059 14.866,7.08944 24.6333,18.14594 29.8149,33.75027 10.2517,30.87294 -2.2604,65.07814 -28.4413,77.75208 -11.9499,5.78488 -18.4259,6.6537 -49.7201,6.67038 l -29.6799,0.0158 z m 61.1045,41.54112 c 10.0218,-2.94141 19.7198,-12.86216 23.1101,-23.64079 3.7233,-11.8372 2.645,-31.09938 -2.3075,-41.22198 -7.3361,-14.99444 -17.2684,-19.67835 -41.7282,-19.67835 h -16.499 v 43.33333 43.33334 h 15.0913 c 9.8933,0 17.5858,-0.73214 22.3333,-2.12555 z M 229.26093,595.33332 V 519.99999 H 154.59427 79.927611 v 75.33333 75.33333 h 74.666659 74.66666 z m -86.66666,62.63179 c -18.59553,-5.11602 -29.68305,-20.87615 -33.37678,-47.44271 -3.88509,-27.94296 3.07114,-55.4072 17.26627,-68.16984 20.86251,-18.7572 53.81352,-11.55748 66.11514,14.44598 10.07634,21.29966 9.77041,58.73402 -0.6469,79.15363 -9.40572,18.43672 -29.60776,27.4466 -49.35773,22.01294 z m 21.3974,-19.63633 c 9.15181,-6.1674 13.26927,-19.16173 13.26927,-41.87664 0,-23.01273 -3.423,-35.03049 -12.04384,-42.28444 -3.40306,-2.86348 -5.51519,-3.50105 -11.59824,-3.50105 -6.89872,0 -7.79244,0.37313 -12.33751,5.151 -16.00629,16.82611 -13.24335,74.57644 3.97959,83.18027 6.40917,3.20173 13.35494,2.95361 18.73073,-0.66914 z M 1271.9275,595.33332 v -75.33333 h -74.6666 -74.6667 v 75.33333 75.33333 h 74.6667 74.6666 z m -77.2083,63.24041 c -15.7769,-2.79812 -32.9472,-15.15793 -39.8307,-28.67157 -10.0808,-19.79059 -10.3689,-46.08031 -0.7218,-65.87067 7.2114,-14.79381 23.5347,-27.19988 40.6051,-30.86082 9.9184,-2.1271 28.2191,-0.78186 36.9742,2.71789 7.8894,3.15369 18.8482,10.21014 18.8482,12.13649 0,0.67667 -1.9155,3.94784 -4.2567,7.26928 -5.1504,7.30704 -7.6909,7.59633 -17.5998,2.00411 -17.5119,-9.8831 -39.1957,-5.30912 -49.8077,10.50641 -5.3151,7.92121 -7.3161,15.64588 -7.3368,28.32288 -0.019,11.71673 2.7252,21.25079 8.3533,29.02017 11.1884,15.44516 36.1201,18.96099 52.833,7.45042 7.9515,-5.47647 9.8908,-5.15022 15.8533,2.66712 2.7815,3.6467 3.201,5.08501 2.0891,7.16264 -1.9133,3.57498 -14.1347,11.47168 -21.7343,14.04333 -8.0084,2.70996 -24.9738,3.75076 -34.2684,2.10232 z m 77.2083,-271.90707 v -74.66667 h -74.6666 -74.6667 v 74.66667 74.66666 h 74.6667 74.6666 z m -117.3333,-0.0555 V 323.6775 l 29,0.59472 c 23.8075,0.48825 30.4324,1.05428 37,3.16128 18.3493,5.88677 28.0051,24.1378 21.2825,40.22724 -2.6231,6.278 -5.2444,9.19709 -12.347,13.74972 l -5.7311,3.67357 4.8455,1.59915 c 5.8999,1.94713 13.3475,8.2839 16.1849,13.77088 3.4457,6.66324 2.7616,19.48227 -1.5049,28.20287 -3.9276,8.02763 -8.6472,12.28702 -18.8033,16.96978 -6.1712,2.84538 -8.6205,3.0681 -38.2599,3.47909 l -31.6667,0.43909 z m 60.0208,41.6091 c 8.2491,-4.34376 11.6821,-15.77038 7.29,-24.26389 -3.4693,-6.70878 -8.7323,-8.47418 -26.9775,-9.04917 l -16.3333,-0.51472 v 18.13709 18.13711 h 15.6875 c 12.6397,0 16.59,-0.47528 20.3333,-2.44642 z m -3.0434,-52.6801 c 6.0361,-3.15324 8.8026,-9.08941 8.022,-17.213 -1.1503,-11.97105 -7.9054,-15.57025 -29.3327,-15.62867 l -11.6667,-0.0319 v 18.17126 18.17127 l 14.3333,-0.60855 c 9.872,-0.41913 15.6751,-1.30949 18.6441,-2.8605 z M 1271.9275,178 v -75.33334 h -74.6666 -74.6667 V 178 253.33333 h 74.6667 74.6666 z m -134.6666,62.06261 c 0,-0.6989 10.5705,-28.1489 23.49,-61 12.9195,-32.85111 23.7837,-60.47928 24.1427,-61.39595 0.4567,-1.16645 4.3114,-1.6604 12.8433,-1.64578 l 12.1906,0.0209 24,61.35885 c 13.2,33.74735 24.2,61.93795 24.4445,62.64578 0.2595,0.75161 -3.6866,1.28693 -9.4869,1.28693 -13.2904,0 -15.0887,-1.5374 -20.9148,-17.87996 l -4.5778,-12.84129 -25.9207,0.36063 -25.9208,0.36062 -4.5211,12.66667 c -2.4867,6.96667 -5.7684,13.71667 -7.2928,15 -2.0926,1.76164 -5.1856,2.33333 -12.6239,2.33333 -5.4188,1e-5 -9.8523,-0.57182 -9.8523,-1.27071 z m 75.7435,-57.72928 c -2.2385,-6.05 -6.5967,-18.09855 -9.6847,-26.77455 l -5.6146,-15.77454 -9.0993,25.10788 c -5.0046,13.80933 -9.3687,25.85787 -9.6981,26.77454 -0.4614,1.28436 3.8473,1.66667 18.7841,1.66667 h 19.3828 z"
       id="path34" />
  </g>
</svg>
